<svg xmlns="http://www.w3.org/2000/svg" viewBox="0 0 567.09 99.97"><defs><style>.cls-1,.cls-10{fill:#243e87;}.cls-2,.cls-3{fill:#fff;}.cls-3{font-size:60px;font-family:Interstate-Regular;}.cls-4{letter-spacing:-0.01em;}.cls-5{letter-spacing:0em;}.cls-6{letter-spacing:-0.02em;}.cls-7{letter-spacing:-0.02em;}.cls-8{letter-spacing:-0.01em;}.cls-9{letter-spacing:0em;}.cls-10{font-size:36px;font-family:InterstateCond;}</style></defs><g id="Layer_2" data-name="Layer 2"><g id="Layer_1-2" data-name="Layer 1"><rect class="cls-1" x="2" y="2" width="401" height="95.97" rx="15.33"/><path class="cls-2" d="M387.67,4A13.35,13.35,0,0,1,401,17.33v65.3A13.35,13.35,0,0,1,387.67,96H17.33A13.35,13.35,0,0,1,4,82.63V17.33A13.35,13.35,0,0,1,17.33,4H387.67m0-4H17.33A17.33,17.33,0,0,0,0,17.33v65.3A17.33,17.33,0,0,0,17.33,100H387.67A17.33,17.33,0,0,0,405,82.63V17.33A17.33,17.33,0,0,0,387.67,0Z"/><path class="cls-1" d="M387.67,2A15.35,15.35,0,0,1,403,17.33v65.3A15.35,15.35,0,0,1,387.67,98H17.33A15.35,15.35,0,0,1,2,82.63V17.33A15.35,15.35,0,0,1,17.33,2H387.67m0-2H17.33A17.33,17.33,0,0,0,0,17.33v65.3A17.33,17.33,0,0,0,17.33,100H387.67A17.33,17.33,0,0,0,405,82.63V17.33A17.33,17.33,0,0,0,387.67,0Z"/><text class="cls-3" transform="translate(52.35 69.76)"><tspan class="cls-4">L</tspan><tspan class="cls-5" x="34.8" y="0">o</tspan><tspan class="cls-6" x="69" y="0">c</tspan><tspan x="99.3" y="0">al Fi</tspan><tspan class="cls-7" x="215.22" y="0">r</tspan><tspan class="cls-8" x="239.1" y="0">s</tspan><tspan class="cls-9" x="268.44" y="0">t</tspan></text><text class="cls-10" transform="translate(496.03 61.87)">AUTH</text><rect class="cls-1" x="429.01" y="17.05" width="51" height="66" rx="1.53"/><path class="cls-2" d="M478,19.05v62H431v-62h47m.47-4H430.54A3.53,3.53,0,0,0,427,18.58V81.52a3.53,3.53,0,0,0,3.53,3.53h47.94A3.53,3.53,0,0,0,482,81.52V18.58a3.53,3.53,0,0,0-3.53-3.53Z"/><path class="cls-1" d="M478.48,17.05A1.54,1.54,0,0,1,480,18.58V81.52a1.54,1.54,0,0,1-1.53,1.53H430.54A1.54,1.54,0,0,1,429,81.52V18.58a1.54,1.54,0,0,1,1.53-1.53h47.94m0-2H430.54A3.53,3.53,0,0,0,427,18.58V81.52a3.53,3.53,0,0,0,3.53,3.53h47.94A3.53,3.53,0,0,0,482,81.52V18.58a3.53,3.53,0,0,0-3.53-3.53Z"/><path class="cls-2" d="M468.49,66a2.16,2.16,0,0,1-2.16,2.16H442.69A2.16,2.16,0,0,1,440.53,66h0a2.16,2.16,0,0,1,2.16-2.16h23.64A2.16,2.16,0,0,1,468.49,66Z"/><path class="cls-2" d="M463.66,36.9c-.13-.17-.25-.33-.39-.49s-.38-.44-.58-.65a11.38,11.38,0,0,0-8.18-3.48,11.06,11.06,0,0,0-1.92.17,11.27,11.27,0,0,0-6,3l-.2.2a10.59,10.59,0,0,0-1,1.13,11.38,11.38,0,0,0-.05,13.6l.36.47c.2.23.4.45.61.67A11.33,11.33,0,0,0,453.88,55l.63,0,.78,0a11.29,11.29,0,0,0,7.46-3.52,9.59,9.59,0,0,0,1-1.15l.27-.38a11.35,11.35,0,0,0-.32-13Zm-11.31-2.23a10.3,10.3,0,0,0-2.67,3.66,10.09,10.09,0,0,1-1.86-1.12A9.49,9.49,0,0,1,452.35,34.67Zm-5.67,3.94.25-.36a11.74,11.74,0,0,0,2.29,1.27,13.88,13.88,0,0,0-.68,3.55h-3.41A9.32,9.32,0,0,1,446.68,38.61Zm-.55,9.51a9.37,9.37,0,0,1-1-3.21h3.38a13.92,13.92,0,0,0,.56,3.16,11.5,11.5,0,0,0-2.23,1.26A10.57,10.57,0,0,1,446.13,48.12Zm1.62,2.26a9.84,9.84,0,0,1,1.78-1.09,10.8,10.8,0,0,0,2.34,3.58A9.33,9.33,0,0,1,447.75,50.38Zm6.11,2.19a8.32,8.32,0,0,1-3.15-3.76,11.74,11.74,0,0,1,3.15-.6Zm0-5.57a14.19,14.19,0,0,0-3.59.63,11.81,11.81,0,0,1-.52-2.72h4.11Zm0-3.93h-4.11A11.92,11.92,0,0,1,450.4,40a14.22,14.22,0,0,0,3.46.59Zm0-3.74a11.75,11.75,0,0,1-3-.54,8.16,8.16,0,0,1,3-3.38Zm9.35.91a11.64,11.64,0,0,1,.55,2.83h-3.09a14.4,14.4,0,0,0-.68-3.56,11.42,11.42,0,0,0,2.15-1.19A9.51,9.51,0,0,1,463.21,40.24Zm-1.95-3a9.28,9.28,0,0,1-1.74,1,10.26,10.26,0,0,0-2.58-3.57A9.33,9.33,0,0,1,461.26,37.28Zm-5.94-1.89a8.12,8.12,0,0,1,3,3.39,12,12,0,0,1-3,.55Zm0,5.15a14.47,14.47,0,0,0,3.49-.6,12,12,0,0,1,.65,3.13h-4.14Zm0,4.37h4.14a11.9,11.9,0,0,1-.52,2.73,14,14,0,0,0-3.62-.64Zm0,7.68V48.21a11.72,11.72,0,0,1,3.18.61A8.36,8.36,0,0,1,455.32,52.59Zm2.1.2a10.68,10.68,0,0,0,2.26-3.49,9.22,9.22,0,0,1,1.66,1A9.47,9.47,0,0,1,457.42,52.79Zm6.12-6.28a9.37,9.37,0,0,1-1.34,2.75,11.43,11.43,0,0,0-2.09-1.18,14,14,0,0,0,.56-3.17h3.19A9.44,9.44,0,0,1,463.54,46.51Z"/></g></g></svg>