<svg xmlns="http://www.w3.org/2000/svg" viewBox="0 0 210 100"><defs><style>.cls-1{fill:#243e87;}.cls-2,.cls-3{fill:#fff;}.cls-3{font-size:36px;font-family:InterstateCond;}</style></defs><g id="Layer_2" data-name="Layer 2"><g id="Layer_1-2" data-name="Layer 1"><rect class="cls-1" x="2" y="2" width="206" height="96" rx="15.33"/><path class="cls-2" d="M192.67,4A13.35,13.35,0,0,1,206,17.33V82.67A13.35,13.35,0,0,1,192.67,96H17.33A13.35,13.35,0,0,1,4,82.67V17.33A13.35,13.35,0,0,1,17.33,4H192.67m0-4H17.33A17.33,17.33,0,0,0,0,17.33V82.67A17.33,17.33,0,0,0,17.33,100H192.67A17.33,17.33,0,0,0,210,82.67V17.33A17.33,17.33,0,0,0,192.67,0Z"/><path class="cls-1" d="M192.67,2A15.35,15.35,0,0,1,208,17.33V82.67A15.35,15.35,0,0,1,192.67,98H17.33A15.35,15.35,0,0,1,2,82.67V17.33A15.35,15.35,0,0,1,17.33,2H192.67m0-2H17.33A17.33,17.33,0,0,0,0,17.33V82.67A17.33,17.33,0,0,0,17.33,100H192.67A17.33,17.33,0,0,0,210,82.67V17.33A17.33,17.33,0,0,0,192.67,0Z"/><text class="cls-3" transform="translate(100.06 61.88)">AUTH</text><path class="cls-2" d="M72.52,65a2.15,2.15,0,0,1-2.16,2.16H46.72A2.15,2.15,0,0,1,44.57,65h0a2.15,2.15,0,0,1,2.15-2.15H70.36A2.15,2.15,0,0,1,72.52,65Z"/><path class="cls-2" d="M76.44,79.79H40.65a5.08,5.08,0,0,1-5.08-5.08V23.47a5.08,5.08,0,0,1,5.08-5.08H76.44a5.09,5.09,0,0,1,5.08,5.08V74.71A5.09,5.09,0,0,1,76.44,79.79ZM40.65,20.23a3.24,3.24,0,0,0-3.24,3.24V74.71a3.24,3.24,0,0,0,3.24,3.23H76.44a3.24,3.24,0,0,0,3.24-3.23V23.47a3.24,3.24,0,0,0-3.24-3.24Z"/><path class="cls-2" d="M67.69,35.94c-.12-.17-.25-.34-.38-.5s-.38-.43-.58-.64a11.33,11.33,0,0,0-6.23-3.31,11.52,11.52,0,0,0-2-.17,12.23,12.23,0,0,0-1.92.16,11.39,11.39,0,0,0-6,3l-.2.19a11.68,11.68,0,0,0-1,1.14,11.35,11.35,0,0,0-.06,13.59c.12.16.24.32.37.47s.39.46.6.68A11.33,11.33,0,0,0,57.91,54l.63,0c.27,0,.53,0,.78,0a11.33,11.33,0,0,0,7.47-3.52,13.29,13.29,0,0,0,1-1.15c.09-.13.18-.25.26-.38a11.35,11.35,0,0,0-.32-13ZM56.38,33.71a10.39,10.39,0,0,0-2.67,3.65,9.17,9.17,0,0,1-1.85-1.11A9.38,9.38,0,0,1,56.38,33.71Zm-5.67,3.94.26-.36a11.66,11.66,0,0,0,2.28,1.27,13.88,13.88,0,0,0-.67,3.54H49.16A9.5,9.5,0,0,1,50.71,37.65Zm-.55,9.51a9.5,9.5,0,0,1-1-3.21h3.39a13.92,13.92,0,0,0,.55,3.16,11.5,11.5,0,0,0-2.23,1.26A10.57,10.57,0,0,1,50.16,47.16Zm1.63,2.26a9.45,9.45,0,0,1,1.77-1.1,10.74,10.74,0,0,0,2.34,3.59A9.45,9.45,0,0,1,51.79,49.42Zm6.1,2.18a8.28,8.28,0,0,1-3.15-3.76,12.74,12.74,0,0,1,3.15-.6Zm0-5.57a14.19,14.19,0,0,0-3.59.64A11.91,11.91,0,0,1,53.79,44h4.1Zm0-3.93h-4.1A12.09,12.09,0,0,1,54.43,39a14.23,14.23,0,0,0,3.46.6Zm0-3.73a12.21,12.21,0,0,1-3-.54,8.1,8.1,0,0,1,3-3.38Zm9.36.91a12.15,12.15,0,0,1,.54,2.82H64.7A14.13,14.13,0,0,0,64,38.54a10.85,10.85,0,0,0,2.15-1.18A9.77,9.77,0,0,1,67.25,39.28Zm-2-3a10,10,0,0,1-1.74,1A10.32,10.32,0,0,0,61,33.78,9.33,9.33,0,0,1,65.3,36.32Zm-5.95-1.89a8.06,8.06,0,0,1,3,3.39,12,12,0,0,1-3,.55Zm0,5.15A14,14,0,0,0,62.84,39a11.68,11.68,0,0,1,.65,3.13H59.35Zm0,4.37h4.14A11.9,11.9,0,0,1,63,46.68,14.43,14.43,0,0,0,59.35,46Zm0,7.67V47.24a12.37,12.37,0,0,1,3.18.61A8.19,8.19,0,0,1,59.35,51.62Zm2.11.2a10.78,10.78,0,0,0,2.25-3.48,9.79,9.79,0,0,1,1.66,1A9.5,9.5,0,0,1,61.46,51.82Zm6.11-6.27a9.49,9.49,0,0,1-1.34,2.75,11.43,11.43,0,0,0-2.09-1.18A14,14,0,0,0,64.7,44h3.19A9.44,9.44,0,0,1,67.57,45.55Z"/></g></g></svg>