<svg xmlns="http://www.w3.org/2000/svg" viewBox="0 0 271.09 100"><defs><style>.cls-1,.cls-4{fill:#243e87;}.cls-2,.cls-3{fill:#fff;}.cls-3{font-size:60px;font-family:Interstate-Regular;}.cls-4{font-size:36px;font-family:InterstateCond;}</style></defs><g id="Layer_2" data-name="Layer 2"><g id="Layer_1-2" data-name="Layer 1"><rect class="cls-1" x="2" y="2" width="96" height="96" rx="15.33"/><path class="cls-2" d="M82.67,4A13.35,13.35,0,0,1,96,17.33V82.67A13.35,13.35,0,0,1,82.67,96H17.33A13.35,13.35,0,0,1,4,82.67V17.33A13.35,13.35,0,0,1,17.33,4H82.67m0-4H17.33A17.33,17.33,0,0,0,0,17.33V82.67A17.33,17.33,0,0,0,17.33,100H82.67A17.33,17.33,0,0,0,100,82.67V17.33A17.33,17.33,0,0,0,82.67,0Z"/><path class="cls-1" d="M82.67,2A15.35,15.35,0,0,1,98,17.33V82.67A15.35,15.35,0,0,1,82.67,98H17.33A15.35,15.35,0,0,1,2,82.67V17.33A15.35,15.35,0,0,1,17.33,2H82.67m0-2H17.33A17.33,17.33,0,0,0,0,17.33V82.67A17.33,17.33,0,0,0,17.33,100H82.67A17.33,17.33,0,0,0,100,82.67V17.33A17.33,17.33,0,0,0,82.67,0Z"/><text class="cls-3" transform="translate(14.69 69.58)">LF</text><text class="cls-4" transform="translate(200.03 61.42)">AUTH</text><rect class="cls-1" x="133.01" y="16.59" width="51" height="66" rx="1.53"/><path class="cls-2" d="M182,18.59v62H135v-62h47m.47-4H134.54A3.54,3.54,0,0,0,131,18.13V81.06a3.53,3.53,0,0,0,3.53,3.53h47.94A3.53,3.53,0,0,0,186,81.06V18.13a3.54,3.54,0,0,0-3.53-3.54Z"/><path class="cls-1" d="M182.48,16.59A1.54,1.54,0,0,1,184,18.13V81.06a1.53,1.53,0,0,1-1.53,1.53H134.54A1.53,1.53,0,0,1,133,81.06V18.13a1.54,1.54,0,0,1,1.53-1.54h47.94m0-2H134.54A3.54,3.54,0,0,0,131,18.13V81.06a3.53,3.53,0,0,0,3.53,3.53h47.94A3.53,3.53,0,0,0,186,81.06V18.13a3.54,3.54,0,0,0-3.53-3.54Z"/><path class="cls-2" d="M172.49,65.49a2.16,2.16,0,0,1-2.16,2.16H146.69a2.16,2.16,0,0,1-2.16-2.16h0a2.16,2.16,0,0,1,2.16-2.15h23.64a2.16,2.16,0,0,1,2.16,2.15Z"/><path class="cls-2" d="M167.66,36.45c-.13-.17-.25-.34-.39-.5s-.38-.43-.58-.64a11.38,11.38,0,0,0-8.18-3.48,11.06,11.06,0,0,0-1.92.16,11.28,11.28,0,0,0-6,3l-.2.19a13,13,0,0,0-1,1.13,11.38,11.38,0,0,0-.05,13.6l.36.47c.2.24.4.46.61.68a11.37,11.37,0,0,0,7.53,3.44l.63,0,.78,0A11.29,11.29,0,0,0,166.75,51a10.45,10.45,0,0,0,1-1.15l.27-.39a11.34,11.34,0,0,0-.32-13Zm-11.31-2.23a10.18,10.18,0,0,0-2.67,3.65,10.05,10.05,0,0,1-1.86-1.11A9.41,9.41,0,0,1,156.35,34.22Zm-5.67,3.94.25-.36a11.74,11.74,0,0,0,2.29,1.27,13.89,13.89,0,0,0-.68,3.54h-3.41A9.24,9.24,0,0,1,150.68,38.16Zm-.55,9.51a9.5,9.5,0,0,1-1-3.21h3.38a14,14,0,0,0,.56,3.16,11.5,11.5,0,0,0-2.23,1.26A11.51,11.51,0,0,1,150.13,47.67Zm1.62,2.26a9.34,9.34,0,0,1,1.78-1.1,10.84,10.84,0,0,0,2.34,3.59A9.42,9.42,0,0,1,151.75,49.93Zm6.11,2.18a8.22,8.22,0,0,1-3.15-3.76,12.14,12.14,0,0,1,3.15-.6Zm0-5.57a13.76,13.76,0,0,0-3.59.64,11.91,11.91,0,0,1-.52-2.72h4.11Zm0-3.93h-4.11a11.92,11.92,0,0,1,.65-3.12,14.23,14.23,0,0,0,3.46.6Zm0-3.73a12.21,12.21,0,0,1-3-.54,8.1,8.1,0,0,1,3-3.38Zm9.35.91a11.65,11.65,0,0,1,.55,2.82h-3.09a14.49,14.49,0,0,0-.68-3.56,11.39,11.39,0,0,0,2.15-1.18A9.24,9.24,0,0,1,167.21,39.79Zm-2-3a9.28,9.28,0,0,1-1.74,1,10.17,10.17,0,0,0-2.58-3.57A9.25,9.25,0,0,1,165.26,36.83Zm-5.94-1.89a8.12,8.12,0,0,1,3,3.39,12,12,0,0,1-3,.55Zm0,5.15a14,14,0,0,0,3.49-.61,12.08,12.08,0,0,1,.65,3.13h-4.14Zm0,4.37h4.14a11.9,11.9,0,0,1-.52,2.73,14,14,0,0,0-3.62-.65Zm0,7.67V47.75a12.54,12.54,0,0,1,3.18.61A8.31,8.31,0,0,1,159.32,52.13Zm2.1.2a10.63,10.63,0,0,0,2.26-3.48,9.79,9.79,0,0,1,1.66,1A9.47,9.47,0,0,1,161.42,52.33Zm6.12-6.27a9.49,9.49,0,0,1-1.34,2.75,10.87,10.87,0,0,0-2.09-1.18,14,14,0,0,0,.56-3.17h3.19A9.44,9.44,0,0,1,167.54,46.06Z"/></g></g></svg>