<svg xmlns="http://www.w3.org/2000/svg" xmlns:xlink="http://www.w3.org/1999/xlink" viewBox="0 0 1280 640"><defs><style>.cls-1{fill:#243e87;}.cls-2{fill:#fff;}.cls-3{fill:#231f20;}.cls-4{isolation:isolate;}.cls-5{fill:#8586b4;}.cls-6{opacity:0.3;mix-blend-mode:multiply;fill:url(#linear-gradient);}</style><linearGradient id="linear-gradient" x1="160" y1="800" x2="1120" y2="-160" gradientUnits="userSpaceOnUse"><stop offset="0" stop-color="#fff"/><stop offset="1"/></linearGradient><symbol id="auth-logo" data-name="auth-logo" viewBox="0 0 47.71 60.56"><rect class="cls-1" x="3" y="3" width="41.71" height="54.56" rx="1.83"/><path class="cls-2" d="M42.88,4a.83.83,0,0,1,.83.83v50.9a.83.83,0,0,1-.83.83H4.83A.83.83,0,0,1,4,55.73V4.83A.83.83,0,0,1,4.83,4H42.88m0-2H4.83A2.83,2.83,0,0,0,2,4.83v50.9a2.83,2.83,0,0,0,2.83,2.83H42.88a2.83,2.83,0,0,0,2.83-2.83V4.83A2.83,2.83,0,0,0,42.88,2Z"/><path class="cls-1" d="M42.88,2a2.83,2.83,0,0,1,2.83,2.83v50.9a2.83,2.83,0,0,1-2.83,2.83H4.83A2.83,2.83,0,0,1,2,55.73V4.83A2.83,2.83,0,0,1,4.83,2H42.88m0-2H4.83A4.84,4.84,0,0,0,0,4.83v50.9a4.83,4.83,0,0,0,4.83,4.83H42.88a4.83,4.83,0,0,0,4.83-4.83V4.83A4.84,4.84,0,0,0,42.88,0Z"/><path class="cls-2" d="M31.69,19q-.15-.21-.33-.42c-.15-.19-.32-.37-.49-.55a9.72,9.72,0,0,0-5.34-2.84,10.29,10.29,0,0,0-1.68-.15,8.85,8.85,0,0,0-1.64.15,9.63,9.63,0,0,0-5.13,2.6l-.17.16a11,11,0,0,0-.84,1,9.73,9.73,0,0,0,0,11.66c.1.14.2.27.31.4s.34.39.52.58a9.73,9.73,0,0,0,6.45,3h.54l.67,0a9.7,9.7,0,0,0,6.4-3,10.91,10.91,0,0,0,.82-1l.23-.33A9.76,9.76,0,0,0,31.69,19ZM22,17.11a8.69,8.69,0,0,0-2.28,3.13,8.18,8.18,0,0,1-1.6-1A8,8,0,0,1,22,17.11Zm-4.86,3.37c.07-.1.14-.21.22-.31a10,10,0,0,0,2,1.09,12.23,12.23,0,0,0-.58,3H15.82A8,8,0,0,1,17.14,20.48Zm-.47,8.15a8,8,0,0,1-.83-2.75h2.9a11.81,11.81,0,0,0,.48,2.71,9.56,9.56,0,0,0-1.91,1.08A8.54,8.54,0,0,1,16.67,28.63Zm1.39,1.94a7.94,7.94,0,0,1,1.52-.94,9.3,9.3,0,0,0,2,3.07A8.09,8.09,0,0,1,18.06,30.57Zm5.23,1.87a7.1,7.1,0,0,1-2.69-3.22,10.52,10.52,0,0,1,2.69-.52Zm0-4.77a12.1,12.1,0,0,0-3.07.54,10.23,10.23,0,0,1-.44-2.33h3.51Zm0-3.37H19.78a10.45,10.45,0,0,1,.55-2.68,11.75,11.75,0,0,0,3,.52Zm0-3.2a10.39,10.39,0,0,1-2.54-.46,7,7,0,0,1,2.54-2.9Zm8,.78a9.89,9.89,0,0,1,.47,2.42H29.13a12.31,12.31,0,0,0-.58-3.05,9.58,9.58,0,0,0,1.84-1A7.83,7.83,0,0,1,31.31,21.88Zm-1.67-2.54a8.12,8.12,0,0,1-1.49.88,8.77,8.77,0,0,0-2.21-3.06A8,8,0,0,1,29.64,19.34Zm-5.09-1.62a6.87,6.87,0,0,1,2.57,2.91,10.63,10.63,0,0,1-2.57.47Zm0,4.42a13,13,0,0,0,3-.52,10,10,0,0,1,.55,2.68H24.55Zm0,3.74h3.54a10.32,10.32,0,0,1-.44,2.34,11.9,11.9,0,0,0-3.1-.55Zm0,6.58V28.7a10.33,10.33,0,0,1,2.72.53A7.18,7.18,0,0,1,24.55,32.46Zm1.8.17a9.23,9.23,0,0,0,1.93-3,7.69,7.69,0,0,1,1.42.87A8.07,8.07,0,0,1,26.35,32.63Zm5.24-5.38a8.06,8.06,0,0,1-1.14,2.36,9.51,9.51,0,0,0-1.8-1,11.9,11.9,0,0,0,.48-2.72h2.74A8.75,8.75,0,0,1,31.59,27.25Z"/><polygon class="cls-1" points="15.02 44.01 15.02 43.81 32.69 43.81 32.69 44.01 15.02 44.01"/><path class="cls-2" d="M32.69,42.91H15a.9.9,0,0,0-.91.9V44a.91.91,0,0,0,.91.9H32.69a.9.9,0,0,0,.9-.9v-.2a.9.9,0,0,0-.9-.9Z"/></symbol><symbol id="localfirst-box" data-name="localfirst-box" viewBox="0 0 409 103.97"><rect class="cls-2" x="4" y="4" width="401" height="95.97" rx="15.33"/><path class="cls-3" d="M389.67,6A13.35,13.35,0,0,1,403,19.33v65.3A13.35,13.35,0,0,1,389.67,98H19.33A13.35,13.35,0,0,1,6,84.63V19.33A13.35,13.35,0,0,1,19.33,6H389.67m0-4H19.33A17.33,17.33,0,0,0,2,19.33v65.3A17.33,17.33,0,0,0,19.33,102H389.67A17.33,17.33,0,0,0,407,84.63V19.33A17.33,17.33,0,0,0,389.67,2Z"/><path class="cls-2" d="M389.67,2A17.33,17.33,0,0,1,407,19.33v65.3A17.33,17.33,0,0,1,389.67,102H19.33A17.33,17.33,0,0,1,2,84.63V19.33A17.33,17.33,0,0,1,19.33,2H389.67m0-2H19.33A19.35,19.35,0,0,0,0,19.33v65.3A19.36,19.36,0,0,0,19.33,104H389.67A19.36,19.36,0,0,0,409,84.63V19.33A19.35,19.35,0,0,0,389.67,0Z"/><path class="cls-3" d="M84.8,72.63H64.57v-44h6.16v38H84.8Z"/><path class="cls-3" d="M115.84,50.54q0,10.17-3.2,16.13-3.52,6.58-10.18,6.58t-10-6.52q-3.15-5.9-3.15-16.06t3.15-16.13Q95.86,28,102.52,28t10.18,6.53Q115.84,40.38,115.84,50.54Zm-6.28.16A34.42,34.42,0,0,0,108,39.32q-1.89-5.2-5.59-5.21-6.86,0-6.85,16.46a34.32,34.32,0,0,0,1.57,11.37q1.81,5.22,5.53,5.22Q109.55,67.16,109.56,50.7Z"/><path class="cls-3" d="M146.13,62.19q-2.32,11.07-11.69,11.06-6.72,0-10-6.58-2.9-5.84-2.89-16t3.08-16.13Q128,28,134.63,28q9.62,0,11.44,10.74l-6.23,1.58a10.08,10.08,0,0,0-1.75-4.53,4.43,4.43,0,0,0-3.65-1.57q-6.6,0-6.6,16.37a35.2,35.2,0,0,0,1.51,11.29q1.83,5.2,5.53,5.2a4.31,4.31,0,0,0,3.46-1.55,15.48,15.48,0,0,0,2.07-5.11Z"/><path class="cls-3" d="M178.3,72.63h-6.72L169,61h-9.55l-2.51,11.63H150.4l10.81-44h6.34ZM167.74,55.16l-1.63-7.42q-.31-1.32-1.89-9.61-.61,3.33-1.88,9.61l-1.63,7.42Z"/><path class="cls-3" d="M204.5,72.63H184.27v-44h6.16v38H204.5Z"/><path class="cls-3" d="M245.34,34.61H230.51V46.68H240v5.9h-9.49v20h-6.15v-44h21Z"/><path class="cls-3" d="M257.72,72.63h-6.16v-44h6.16Z"/><path class="cls-3" d="M291.59,72.63h-6.85l-6.66-19.17H273V72.63h-6.16v-44h12.38a12.58,12.58,0,0,1,8.55,2.83q3.71,3.21,3.7,9.36,0,8.87-6.91,11.56ZM285.12,41q0-6.41-6.41-6.41H273V47.55h5.72Q285.12,47.55,285.12,41Z"/><path class="cls-3" d="M319.87,61.21a12.16,12.16,0,0,1-3.15,8.72q-3.14,3.33-8.86,3.32-7.41,0-11.62-7.12l4.84-3.87q3.07,4.91,7.16,4.9,5.28,0,5.28-5.59A7,7,0,0,0,312,57.11a26.33,26.33,0,0,0-5.9-4.81A26,26,0,0,1,299.88,47a12.79,12.79,0,0,1-2.57-8,10.42,10.42,0,0,1,11.12-11q6.6,0,10.68,6l-4.52,4a11.4,11.4,0,0,0-3-3,6.34,6.34,0,0,0-3.36-.82q-4.59,0-4.59,4.64A6.44,6.44,0,0,0,305,42.89,21.89,21.89,0,0,0,310.06,47a29.36,29.36,0,0,1,7,5.71A13.19,13.19,0,0,1,319.87,61.21Z"/><path class="cls-3" d="M346.76,34.67h-8.11v38H332.5v-38h-8.11v-6h22.37Z"/></symbol><symbol id="localfirst-auth-v" data-name="localfirst-auth-v" viewBox="0 0 409 335.32"><rect class="cls-1" x="5" y="129.28" width="399" height="203.04" rx="33.14"/><path class="cls-2" d="M370.86,132.28A30.17,30.17,0,0,1,401,162.42V299.18a30.17,30.17,0,0,1-30.14,30.14H38.14A30.17,30.17,0,0,1,8,299.18V162.42a30.17,30.17,0,0,1,30.14-30.14H370.86m0-6H38.14A36.14,36.14,0,0,0,2,162.42V299.18a36.14,36.14,0,0,0,36.14,36.14H370.86A36.14,36.14,0,0,0,407,299.18V162.42a36.14,36.14,0,0,0-36.14-36.14Z"/><path class="cls-1" d="M370.86,129.28A33.18,33.18,0,0,1,404,162.42V299.18a33.18,33.18,0,0,1-33.14,33.14H38.14A33.18,33.18,0,0,1,5,299.18V162.42a33.18,33.18,0,0,1,33.14-33.14H370.86m0-3H38.14A36.14,36.14,0,0,0,2,162.42V299.18a36.14,36.14,0,0,0,36.14,36.14H370.86A36.14,36.14,0,0,0,407,299.18V162.42a36.14,36.14,0,0,0-36.14-36.14Z"/><path class="cls-2" d="M199.28,257.25l-4.75-13.36H172l-4.67,13.36h-8.78l20.3-56.36h8.93l20.54,56.36Zm-11.84-33.9c-.32-1-.7-2.14-1.13-3.38s-.84-2.47-1.24-3.7-.78-2.38-1.13-3.43-.61-1.86-.77-2.45c-.16.59-.4,1.41-.72,2.45s-.67,2.18-1,3.39-.76,2.45-1.17,3.74-.79,2.45-1.16,3.46l-4.51,12.89H192Z"/><path class="cls-2" d="M242.28,257.2l.08-4a10.68,10.68,0,0,1-4.47,3.66,14.82,14.82,0,0,1-6.16,1.3q-7.41,0-11.24-4.75t-3.82-14.17V215H225v23.86c0,4.29.76,7.28,2.28,9a8,8,0,0,0,6.34,2.57A7.69,7.69,0,0,0,240,247.6q2.24-2.82,2.24-8V215h8.37V257.2Z"/><path class="cls-2" d="M283.1,256.21a14.22,14.22,0,0,1-3.58,1.41,18.9,18.9,0,0,1-4.55.52,9,9,0,0,1-7-2.74q-2.53-2.73-2.53-8.45v-24.4h-6V215h6V202.9l8.13-4.35V215h10.47v7.57H273.6V245.5c0,2,.33,3.33,1,4a4.5,4.5,0,0,0,3.35,1,11.11,11.11,0,0,0,3.3-.52,14.63,14.63,0,0,0,2.82-1.17Z"/><path class="cls-2" d="M320.94,257.25V233.39c0-4.28-.75-7.28-2.27-9a8,8,0,0,0-6.34-2.58,7.66,7.66,0,0,0-6.38,2.82q-2.24,2.81-2.24,8v24.66h-8.37V202.9l8.37-4.35-.08,20.51a10.53,10.53,0,0,1,4.47-3.66,14.68,14.68,0,0,1,6.16-1.31q7.41,0,11.23,4.75T329.32,233v24.23Z"/><use width="47.71" height="60.56" transform="translate(58.81 185) scale(1.5)" xlink:href="#auth-logo"/><use width="409" height="103.97" xlink:href="#localfirst-box"/></symbol></defs><g class="cls-4"><g id="Layer_2" data-name="Layer 2"><g id="Layer_1-2" data-name="Layer 1"><rect class="cls-5" width="1280" height="640"/><rect class="cls-6" width="1280" height="640"/><use width="409" height="335.32" transform="translate(333.25 67.01) scale(1.5)" xlink:href="#localfirst-auth-v"/></g></g></g></svg>