<svg xmlns="http://www.w3.org/2000/svg" viewBox="0 0 55 70"><defs><style>.cls-1{fill:#243e87;}.cls-2{fill:#fff;}</style></defs><g id="Layer_2" data-name="Layer 2"><g id="Layer_1-2" data-name="Layer 1"><rect class="cls-1" x="2" y="2" width="51" height="66" rx="1.53"/><path class="cls-2" d="M51,4V66H4V4H51m.47-4H3.53A3.53,3.53,0,0,0,0,3.53V66.47A3.53,3.53,0,0,0,3.53,70H51.47A3.53,3.53,0,0,0,55,66.47V3.53A3.53,3.53,0,0,0,51.47,0Z"/><path class="cls-1" d="M51.47,2A1.54,1.54,0,0,1,53,3.53V66.47A1.54,1.54,0,0,1,51.47,68H3.53A1.54,1.54,0,0,1,2,66.47V3.53A1.54,1.54,0,0,1,3.53,2H51.47m0-2H3.53A3.53,3.53,0,0,0,0,3.53V66.47A3.53,3.53,0,0,0,3.53,70H51.47A3.53,3.53,0,0,0,55,66.47V3.53A3.53,3.53,0,0,0,51.47,0Z"/><path class="cls-2" d="M41.48,50.9a2.16,2.16,0,0,1-2.16,2.16H15.68a2.16,2.16,0,0,1-2.16-2.16h0a2.16,2.16,0,0,1,2.16-2.16H39.32a2.16,2.16,0,0,1,2.16,2.16Z"/><path class="cls-2" d="M36.65,21.85l-.39-.49c-.18-.22-.38-.44-.58-.65a11.38,11.38,0,0,0-8.18-3.48,11,11,0,0,0-1.92.17,11.31,11.31,0,0,0-6,3l-.19.19a10.59,10.59,0,0,0-1,1.13,11.38,11.38,0,0,0-.05,13.6c.11.16.24.31.36.47s.4.45.61.67a11.33,11.33,0,0,0,7.53,3.44l.63,0q.39,0,.78,0a11.31,11.31,0,0,0,7.46-3.52,9.59,9.59,0,0,0,1-1.15l.27-.38a11.4,11.4,0,0,0-.32-13ZM25.33,19.63a10.27,10.27,0,0,0-2.66,3.65,9.57,9.57,0,0,1-1.86-1.12A9.41,9.41,0,0,1,25.33,19.63Zm-5.66,3.94c.08-.13.16-.25.25-.37a11.24,11.24,0,0,0,2.29,1.27A13.88,13.88,0,0,0,21.53,28H18.12A9.24,9.24,0,0,1,19.67,23.57Zm-.55,9.5a9.37,9.37,0,0,1-1-3.21h3.38A13.92,13.92,0,0,0,22.09,33a11.73,11.73,0,0,0-2.23,1.26A9.32,9.32,0,0,1,19.12,33.07Zm1.62,2.27a9,9,0,0,1,1.78-1.1,10.65,10.65,0,0,0,2.34,3.58A9.4,9.4,0,0,1,20.74,35.34Zm6.11,2.18a8.26,8.26,0,0,1-3.15-3.76,11.74,11.74,0,0,1,3.15-.6Zm0-5.57a14.19,14.19,0,0,0-3.59.63,11.81,11.81,0,0,1-.52-2.72h4.11Zm0-3.93H22.74a11.92,11.92,0,0,1,.65-3.12,14.23,14.23,0,0,0,3.46.6Zm0-3.73a11.76,11.76,0,0,1-3-.55,8.16,8.16,0,0,1,3-3.38Zm9.35.91A11.47,11.47,0,0,1,36.75,28H33.66A14.4,14.4,0,0,0,33,24.46a11.42,11.42,0,0,0,2.15-1.19A9.32,9.32,0,0,1,36.2,25.2Zm-2-3a9.28,9.28,0,0,1-1.74,1,10.26,10.26,0,0,0-2.58-3.57A9.42,9.42,0,0,1,34.25,22.23Zm-5.94-1.89a8.12,8.12,0,0,1,3,3.39,12.55,12.55,0,0,1-3,.56Zm0,5.16a14.47,14.47,0,0,0,3.49-.61A12,12,0,0,1,32.45,28H28.31Zm0,4.36h4.14a12.09,12.09,0,0,1-.52,2.74A13.58,13.58,0,0,0,28.31,32Zm0,7.68V33.16a11.58,11.58,0,0,1,3.17.61A8.28,8.28,0,0,1,28.31,37.54Zm2.1.2a10.68,10.68,0,0,0,2.26-3.49,8.8,8.8,0,0,1,1.65,1A9.37,9.37,0,0,1,30.41,37.74Zm6.12-6.28a9.37,9.37,0,0,1-1.34,2.75A10.84,10.84,0,0,0,33.1,33a14.19,14.19,0,0,0,.56-3.18h3.19A9.25,9.25,0,0,1,36.53,31.46Z"/></g></g></svg>