<svg xmlns="http://www.w3.org/2000/svg" viewBox="0 0 540 100.24"><defs><style>.cls-1{fill:#243e87;}.cls-10,.cls-2,.cls-3{fill:#fff;}.cls-3{font-size:60px;font-family:Interstate-Regular;}.cls-4{letter-spacing:-0.01em;}.cls-5{letter-spacing:0em;}.cls-6{letter-spacing:-0.02em;}.cls-7{letter-spacing:-0.02em;}.cls-8{letter-spacing:-0.01em;}.cls-9{letter-spacing:0em;}.cls-10{font-size:36px;font-family:InterstateCond;}</style></defs><g id="Layer_2" data-name="Layer 2"><g id="Layer_1-2" data-name="Layer 1"><rect class="cls-1" x="2" y="2" width="536" height="96.24" rx="15.33"/><path class="cls-2" d="M522.67,4A13.35,13.35,0,0,1,536,17.33V82.9a13.35,13.35,0,0,1-13.33,13.34H17.33A13.35,13.35,0,0,1,4,82.9V17.33A13.35,13.35,0,0,1,17.33,4H522.67m0-4H17.33A17.33,17.33,0,0,0,0,17.33V82.9a17.33,17.33,0,0,0,17.33,17.34H522.67A17.33,17.33,0,0,0,540,82.9V17.33A17.33,17.33,0,0,0,522.67,0Z"/><path class="cls-1" d="M522.67,2A15.35,15.35,0,0,1,538,17.33V82.9a15.35,15.35,0,0,1-15.33,15.34H17.33A15.35,15.35,0,0,1,2,82.9V17.33A15.35,15.35,0,0,1,17.33,2H522.67m0-2H17.33A17.33,17.33,0,0,0,0,17.33V82.9a17.33,17.33,0,0,0,17.33,17.34H522.67A17.33,17.33,0,0,0,540,82.9V17.33A17.33,17.33,0,0,0,522.67,0Z"/><text class="cls-3" transform="translate(37.35 69.35)"><tspan class="cls-4">L</tspan><tspan class="cls-5" x="34.8" y="0">o</tspan><tspan class="cls-6" x="69" y="0">c</tspan><tspan x="99.3" y="0">al Fi</tspan><tspan class="cls-7" x="215.22" y="0">r</tspan><tspan class="cls-8" x="239.1" y="0">s</tspan><tspan class="cls-9" x="268.44" y="0">t</tspan></text><text class="cls-10" transform="translate(430.06 61.47)">AUTH</text><path class="cls-2" d="M402.52,65.54a2.16,2.16,0,0,1-2.16,2.16H376.72a2.16,2.16,0,0,1-2.15-2.16h0a2.16,2.16,0,0,1,2.15-2.16h23.64a2.16,2.16,0,0,1,2.16,2.16Z"/><path class="cls-2" d="M406.44,80.34H370.65a5.08,5.08,0,0,1-5.08-5.08V24a5.08,5.08,0,0,1,5.08-5.08h35.79A5.09,5.09,0,0,1,411.52,24V75.26A5.09,5.09,0,0,1,406.44,80.34ZM370.65,20.79A3.24,3.24,0,0,0,367.41,24V75.26a3.24,3.24,0,0,0,3.24,3.24h35.79a3.24,3.24,0,0,0,3.24-3.24V24a3.24,3.24,0,0,0-3.24-3.23Z"/><path class="cls-2" d="M397.69,36.49l-.38-.49c-.19-.22-.38-.43-.58-.64a11.33,11.33,0,0,0-6.23-3.31,11.52,11.52,0,0,0-2-.17,11.14,11.14,0,0,0-1.92.16,11.32,11.32,0,0,0-6,3l-.2.19a11.56,11.56,0,0,0-1,1.13,11.36,11.36,0,0,0-.06,13.6c.12.16.24.32.37.47s.39.46.6.68a11.37,11.37,0,0,0,7.53,3.44h.63q.4,0,.78,0a11.32,11.32,0,0,0,7.47-3.51,13.29,13.29,0,0,0,1-1.15c.09-.13.18-.26.26-.39a11.35,11.35,0,0,0-.32-13Zm-11.31-2.22a10.29,10.29,0,0,0-2.67,3.65,9.65,9.65,0,0,1-1.85-1.11A9.3,9.3,0,0,1,386.38,34.27Zm-5.67,3.94c.08-.12.17-.25.26-.36a11.66,11.66,0,0,0,2.28,1.27,13.8,13.8,0,0,0-.67,3.54h-3.42A9.46,9.46,0,0,1,380.71,38.21Zm-.55,9.5a9.38,9.38,0,0,1-1-3.2h3.39a14.11,14.11,0,0,0,.55,3.16,11.5,11.5,0,0,0-2.23,1.26A10.7,10.7,0,0,1,380.16,47.71ZM381.79,50a9,9,0,0,1,1.77-1.1,10.84,10.84,0,0,0,2.34,3.59A9.54,9.54,0,0,1,381.79,50Zm6.1,2.18a8.28,8.28,0,0,1-3.15-3.76,11.89,11.89,0,0,1,3.15-.6Zm0-5.57a13.76,13.76,0,0,0-3.59.64,11.91,11.91,0,0,1-.51-2.72h4.1Zm0-3.93h-4.1a11.92,11.92,0,0,1,.64-3.12,14.23,14.23,0,0,0,3.46.6Zm0-3.73a12.21,12.21,0,0,1-3-.54,8.1,8.1,0,0,1,3-3.38Zm9.36.91a12.15,12.15,0,0,1,.54,2.82H394.7A14,14,0,0,0,394,39.1a11.39,11.39,0,0,0,2.15-1.18A9.49,9.49,0,0,1,397.25,39.84Zm-1.95-3a10,10,0,0,1-1.74,1A10.46,10.46,0,0,0,391,34.33,9.43,9.43,0,0,1,395.3,36.88ZM389.35,35a8.15,8.15,0,0,1,3,3.4,12,12,0,0,1-3,.55Zm0,5.16a14,14,0,0,0,3.49-.61,11.68,11.68,0,0,1,.65,3.13h-4.14Zm0,4.37h4.14a11.9,11.9,0,0,1-.52,2.73,14,14,0,0,0-3.62-.65Zm0,7.67V47.8a12,12,0,0,1,3.18.61A8.19,8.19,0,0,1,389.35,52.18Zm2.11.2a10.78,10.78,0,0,0,2.25-3.48,9.79,9.79,0,0,1,1.66,1A9.5,9.5,0,0,1,391.46,52.38Zm6.11-6.27a9.31,9.31,0,0,1-1.34,2.74,11.4,11.4,0,0,0-2.09-1.17,14.11,14.11,0,0,0,.56-3.17h3.19A9.65,9.65,0,0,1,397.57,46.11Z"/></g></g></svg>