<svg xmlns="http://www.w3.org/2000/svg" viewBox="0 0 100 100"><defs><style>.cls-1{fill:#243e87;}.cls-2,.cls-3{fill:#fff;}.cls-3{font-size:60px;font-family:Interstate-Regular;}</style></defs><g id="Layer_2" data-name="Layer 2"><g id="Layer_1-2" data-name="Layer 1"><rect class="cls-1" x="2" y="2" width="96" height="96" rx="15.33"/><path class="cls-2" d="M82.67,4A13.35,13.35,0,0,1,96,17.33V82.67A13.35,13.35,0,0,1,82.67,96H17.33A13.35,13.35,0,0,1,4,82.67V17.33A13.35,13.35,0,0,1,17.33,4H82.67m0-4H17.33A17.33,17.33,0,0,0,0,17.33V82.67A17.33,17.33,0,0,0,17.33,100H82.67A17.33,17.33,0,0,0,100,82.67V17.33A17.33,17.33,0,0,0,82.67,0Z"/><path class="cls-1" d="M82.67,2A15.35,15.35,0,0,1,98,17.33V82.67A15.35,15.35,0,0,1,82.67,98H17.33A15.35,15.35,0,0,1,2,82.67V17.33A15.35,15.35,0,0,1,17.33,2H82.67m0-2H17.33A17.33,17.33,0,0,0,0,17.33V82.67A17.33,17.33,0,0,0,17.33,100H82.67A17.33,17.33,0,0,0,100,82.67V17.33A17.33,17.33,0,0,0,82.67,0Z"/><text class="cls-3" transform="translate(14.69 69.58)">LF</text></g></g></svg>