<svg xmlns="http://www.w3.org/2000/svg" xmlns:xlink="http://www.w3.org/1999/xlink" viewBox="0 0 484.89 104"><defs><style>.cls-1{fill:#243e87;}.cls-2,.cls-3{fill:#fff;}.cls-3{font-size:55px;font-family:Interstate-Regular;letter-spacing:-0.01em;}.cls-4{letter-spacing:0em;}.cls-5,.cls-6{fill:#231f20;}.cls-6{font-size:60px;font-family:InterstateCond;}</style><symbol id="auth-logo" data-name="auth-logo" viewBox="0 0 47.71 60.56"><rect class="cls-1" x="3" y="3" width="41.71" height="54.56" rx="1.83"/><path class="cls-2" d="M42.88,4a.83.83,0,0,1,.83.83v50.9a.83.83,0,0,1-.83.83H4.83A.83.83,0,0,1,4,55.73V4.83A.83.83,0,0,1,4.83,4H42.88m0-2H4.83A2.83,2.83,0,0,0,2,4.83v50.9a2.83,2.83,0,0,0,2.83,2.83H42.88a2.83,2.83,0,0,0,2.83-2.83V4.83A2.83,2.83,0,0,0,42.88,2Z"/><path class="cls-1" d="M42.88,2a2.83,2.83,0,0,1,2.83,2.83v50.9a2.83,2.83,0,0,1-2.83,2.83H4.83A2.83,2.83,0,0,1,2,55.73V4.83A2.83,2.83,0,0,1,4.83,2H42.88m0-2H4.83A4.84,4.84,0,0,0,0,4.83v50.9a4.83,4.83,0,0,0,4.83,4.83H42.88a4.83,4.83,0,0,0,4.83-4.83V4.83A4.84,4.84,0,0,0,42.88,0Z"/><path class="cls-2" d="M31.69,19q-.15-.21-.33-.42c-.15-.19-.32-.37-.49-.55a9.72,9.72,0,0,0-5.34-2.84,10.29,10.29,0,0,0-1.68-.15,8.85,8.85,0,0,0-1.64.15,9.63,9.63,0,0,0-5.13,2.6l-.17.16a11,11,0,0,0-.84,1,9.73,9.73,0,0,0,0,11.66c.1.14.2.27.31.4s.34.39.52.58a9.73,9.73,0,0,0,6.45,3h.54l.67,0a9.7,9.7,0,0,0,6.4-3,10.91,10.91,0,0,0,.82-1l.23-.33A9.76,9.76,0,0,0,31.69,19ZM22,17.11a8.69,8.69,0,0,0-2.28,3.13,8.18,8.18,0,0,1-1.6-1A8,8,0,0,1,22,17.11Zm-4.86,3.37c.07-.1.14-.21.22-.31a10,10,0,0,0,2,1.09,12.23,12.23,0,0,0-.58,3H15.82A8,8,0,0,1,17.14,20.48Zm-.47,8.15a8,8,0,0,1-.83-2.75h2.9a11.81,11.81,0,0,0,.48,2.71,9.56,9.56,0,0,0-1.91,1.08A8.54,8.54,0,0,1,16.67,28.63Zm1.39,1.94a7.94,7.94,0,0,1,1.52-.94,9.3,9.3,0,0,0,2,3.07A8.09,8.09,0,0,1,18.06,30.57Zm5.23,1.87a7.1,7.1,0,0,1-2.69-3.22,10.52,10.52,0,0,1,2.69-.52Zm0-4.77a12.1,12.1,0,0,0-3.07.54,10.23,10.23,0,0,1-.44-2.33h3.51Zm0-3.37H19.78a10.45,10.45,0,0,1,.55-2.68,11.75,11.75,0,0,0,3,.52Zm0-3.2a10.39,10.39,0,0,1-2.54-.46,7,7,0,0,1,2.54-2.9Zm8,.78a9.89,9.89,0,0,1,.47,2.42H29.13a12.31,12.31,0,0,0-.58-3.05,9.58,9.58,0,0,0,1.84-1A7.83,7.83,0,0,1,31.31,21.88Zm-1.67-2.54a8.12,8.12,0,0,1-1.49.88,8.77,8.77,0,0,0-2.21-3.06A8,8,0,0,1,29.64,19.34Zm-5.09-1.62a6.87,6.87,0,0,1,2.57,2.91,10.63,10.63,0,0,1-2.57.47Zm0,4.42a13,13,0,0,0,3-.52,10,10,0,0,1,.55,2.68H24.55Zm0,3.74h3.54a10.32,10.32,0,0,1-.44,2.34,11.9,11.9,0,0,0-3.1-.55Zm0,6.58V28.7a10.33,10.33,0,0,1,2.72.53A7.18,7.18,0,0,1,24.55,32.46Zm1.8.17a9.23,9.23,0,0,0,1.93-3,7.69,7.69,0,0,1,1.42.87A8.07,8.07,0,0,1,26.35,32.63Zm5.24-5.38a8.06,8.06,0,0,1-1.14,2.36,9.51,9.51,0,0,0-1.8-1,11.9,11.9,0,0,0,.48-2.72h2.74A8.75,8.75,0,0,1,31.59,27.25Z"/><polygon class="cls-1" points="15.02 44.01 15.02 43.81 32.69 43.81 32.69 44.01 15.02 44.01"/><path class="cls-2" d="M32.69,42.91H15a.9.9,0,0,0-.91.9V44a.91.91,0,0,0,.91.9H32.69a.9.9,0,0,0,.9-.9v-.2a.9.9,0,0,0-.9-.9Z"/></symbol><symbol id="auth-logo-box" data-name="auth-logo-box" viewBox="0 0 359.44 100.02"><rect class="cls-1" x="3" y="3" width="353.44" height="94.02" rx="20.55"/><path class="cls-2" d="M335.89,6a17.57,17.57,0,0,1,17.55,17.55V76.47A17.57,17.57,0,0,1,335.89,94H23.55A17.57,17.57,0,0,1,6,76.47V23.55A17.57,17.57,0,0,1,23.55,6H335.89m0-6H23.55A23.55,23.55,0,0,0,0,23.55V76.47A23.55,23.55,0,0,0,23.55,100H335.89a23.55,23.55,0,0,0,23.55-23.55V23.55A23.55,23.55,0,0,0,335.89,0Z"/><path class="cls-1" d="M335.89,3a20.57,20.57,0,0,1,20.55,20.55V76.47A20.57,20.57,0,0,1,335.89,97H23.55A20.57,20.57,0,0,1,3,76.47V23.55A20.57,20.57,0,0,1,23.55,3H335.89m0-3H23.55A23.55,23.55,0,0,0,0,23.55V76.47A23.55,23.55,0,0,0,23.55,100H335.89a23.55,23.55,0,0,0,23.55-23.55V23.55A23.55,23.55,0,0,0,335.89,0Z"/><text class="cls-3" transform="translate(151.58 68.75)">A<tspan class="cls-4" x="38.33" y="0">uth</tspan></text><use width="47.71" height="60.56" transform="translate(84.66 19.73)" xlink:href="#auth-logo"/></symbol><symbol id="lf-box" data-name="lf-box" viewBox="0 0 104 104"><rect class="cls-2" x="1" y="1" width="102" height="102" rx="18.33"/><path class="cls-2" d="M84.67,2A17.33,17.33,0,0,1,102,19.33V84.67A17.33,17.33,0,0,1,84.67,102H19.33A17.33,17.33,0,0,1,2,84.67V19.33A17.33,17.33,0,0,1,19.33,2H84.67m0-2H19.33A19.35,19.35,0,0,0,0,19.33V84.67A19.35,19.35,0,0,0,19.33,104H84.67A19.35,19.35,0,0,0,104,84.67V19.33A19.35,19.35,0,0,0,84.67,0Z"/><rect class="cls-2" x="4" y="4" width="96" height="96" rx="15.33"/><path class="cls-5" d="M84.67,6A13.35,13.35,0,0,1,98,19.33V84.67A13.35,13.35,0,0,1,84.67,98H19.33A13.35,13.35,0,0,1,6,84.67V19.33A13.35,13.35,0,0,1,19.33,6H84.67m0-4H19.33A17.33,17.33,0,0,0,2,19.33V84.67A17.33,17.33,0,0,0,19.33,102H84.67A17.33,17.33,0,0,0,102,84.67V19.33A17.33,17.33,0,0,0,84.67,2Z"/><text class="cls-6" transform="translate(27.69 71.58)">LF</text></symbol></defs><g id="Layer_2" data-name="Layer 2"><g id="Layer_1-2" data-name="Layer 1"><use width="359.44" height="100.02" transform="translate(125.45 1.93)" xlink:href="#auth-logo-box"/><use width="104" height="104" xlink:href="#lf-box"/></g></g></svg>