<svg xmlns="http://www.w3.org/2000/svg" xmlns:xlink="http://www.w3.org/1999/xlink" viewBox="0 0 485.66 104"><defs><style>.cls-1{fill:#fff;}.cls-2,.cls-4{fill:#231f20;}.cls-3{fill:#f7921e;}.cls-4{fill-rule:evenodd;}</style><symbol id="relay-logo" data-name="relay-logo" viewBox="0 0 69.26 69.26"><path class="cls-3" d="M34.63,66.26A5.13,5.13,0,0,1,31,64.74L4.52,38.29a5.17,5.17,0,0,1,0-7.32L31,4.52a5.17,5.17,0,0,1,7.32,0L64.74,31a5.17,5.17,0,0,1,0,7.32L38.29,64.74A5.13,5.13,0,0,1,34.63,66.26Z"/><path class="cls-2" d="M34.63,4a4.19,4.19,0,0,1,3,1.22L64,31.67a4.19,4.19,0,0,1,0,5.92L37.59,64a4.2,4.2,0,0,1-5.92,0L5.22,37.59a4.19,4.19,0,0,1,0-5.92L31.67,5.22a4.19,4.19,0,0,1,3-1.22m0-2a6.16,6.16,0,0,0-4.37,1.81L3.81,30.26a6.19,6.19,0,0,0,0,8.74L30.26,65.45a6.18,6.18,0,0,0,8.74,0L65.45,39a6.19,6.19,0,0,0,0-8.74L39,3.81A6.16,6.16,0,0,0,34.63,2Z"/><path class="cls-3" d="M34.63,2A6.16,6.16,0,0,1,39,3.81L65.45,30.26a6.19,6.19,0,0,1,0,8.74L39,65.45a6.18,6.18,0,0,1-8.74,0L3.81,39a6.19,6.19,0,0,1,0-8.74L30.26,3.81A6.16,6.16,0,0,1,34.63,2m0-2a8.12,8.12,0,0,0-5.79,2.4L2.4,28.84a8.18,8.18,0,0,0,0,11.58L28.84,66.86a8.18,8.18,0,0,0,11.58,0L66.86,40.42a8.18,8.18,0,0,0,0-11.58L40.42,2.4A8.12,8.12,0,0,0,34.63,0Z"/><circle class="cls-2" cx="36.12" cy="23.27" r="3.02"/><rect class="cls-2" x="18.5" y="27.1" width="6.18" height="7.69"/><polygon class="cls-4" points="25.23 27.1 39.53 27.1 44.83 28.17 45.69 25.67 47.1 25.96 45.97 30.54 39.57 30.07 40.78 49.01 39.39 48.99 36.73 38.11 34.93 48.99 33.6 48.99 33.45 30.11 25.23 28.51 25.23 27.1"/></symbol><symbol id="relay-logo-box" data-name="relay-logo-box" viewBox="0 0 359.44 100.02"><rect class="cls-3" x="3" y="3" width="353.44" height="94.02" rx="20.55"/><path class="cls-2" d="M335.89,6a17.57,17.57,0,0,1,17.55,17.55V76.47A17.57,17.57,0,0,1,335.89,94H23.55A17.57,17.57,0,0,1,6,76.47V23.55A17.57,17.57,0,0,1,23.55,6H335.89m0-6H23.55A23.55,23.55,0,0,0,0,23.55V76.47A23.55,23.55,0,0,0,23.55,100H335.89a23.55,23.55,0,0,0,23.55-23.55V23.55A23.55,23.55,0,0,0,335.89,0Z"/><path class="cls-3" d="M335.89,3a20.57,20.57,0,0,1,20.55,20.55V76.47A20.57,20.57,0,0,1,335.89,97H23.55A20.57,20.57,0,0,1,3,76.47V23.55A20.57,20.57,0,0,1,23.55,3H335.89m0-3H23.55A23.55,23.55,0,0,0,0,23.55V76.47A23.55,23.55,0,0,0,23.55,100H335.89a23.55,23.55,0,0,0,23.55-23.55V23.55A23.55,23.55,0,0,0,335.89,0Z"/><path class="cls-2" d="M183.71,41.87a11.6,11.6,0,0,1-2.26,7.48,11.15,11.15,0,0,1-6.21,3.8l7.86,15.73h-6.64l-7.62-15.24h-8.67V68.88h-5.72V30.38h16.88a16,16,0,0,1,4.76.69A11.17,11.17,0,0,1,180,33.16a9.71,9.71,0,0,1,2.7,3.57A12.31,12.31,0,0,1,183.71,41.87Zm-5.83.17a5.87,5.87,0,0,0-1.79-4.62,6.79,6.79,0,0,0-4.74-1.6H160.17V48.2h11.18a7.12,7.12,0,0,0,4.72-1.52A5.71,5.71,0,0,0,177.88,42Z"/><path class="cls-2" d="M213.85,53.86c0,.52,0,1-.06,1.46s-.07.83-.11,1.13H194.6a11.67,11.67,0,0,0,.88,3.57,7.75,7.75,0,0,0,1.65,2.45,6.47,6.47,0,0,0,2.2,1.43,7,7,0,0,0,2.53.47,8.68,8.68,0,0,0,3.32-.61,12.48,12.48,0,0,0,2.95-1.7l3.35,3.63a14.12,14.12,0,0,1-4.29,2.8,14.62,14.62,0,0,1-5.66,1,12,12,0,0,1-4.82-1,11.23,11.23,0,0,1-4-2.91,14.15,14.15,0,0,1-2.7-4.73,19.12,19.12,0,0,1-1-6.38A20.31,20.31,0,0,1,190,48a13.67,13.67,0,0,1,2.58-4.71,10.82,10.82,0,0,1,4-2.88,13,13,0,0,1,5.14-1,11.73,11.73,0,0,1,5.36,1.15,10.87,10.87,0,0,1,3.8,3.14,13.45,13.45,0,0,1,2.25,4.62A20.21,20.21,0,0,1,213.85,53.86ZM207.6,49a6.58,6.58,0,0,0-1.23-2.31,5.92,5.92,0,0,0-2.07-1.57,7.08,7.08,0,0,0-3-.58,5.77,5.77,0,0,0-4.54,1.9,9.4,9.4,0,0,0-2.06,5.36h13.42A12.51,12.51,0,0,0,207.6,49Z"/><path class="cls-2" d="M221.16,68.88V31.75l5.72-3v40.1Z"/><path class="cls-2" d="M252,68.88V66a13,13,0,0,1-3.52,2.47,10,10,0,0,1-4.4,1,12.51,12.51,0,0,1-3.55-.52,9.19,9.19,0,0,1-3.22-1.68,8.84,8.84,0,0,1-2.34-3,10.33,10.33,0,0,1-.9-4.51,9.18,9.18,0,0,1,.88-4.18,8,8,0,0,1,2.42-2.92A10.15,10.15,0,0,1,241,51a17.7,17.7,0,0,1,4.56-.55A15.9,15.9,0,0,1,252,51.5V49.35a4.64,4.64,0,0,0-1.41-3.63,5.84,5.84,0,0,0-4-1.26,16.61,16.61,0,0,0-4,.44A14.3,14.3,0,0,0,239,46.27L236.84,42a17.78,17.78,0,0,1,4.45-1.92,20.34,20.34,0,0,1,5.45-.66,12.15,12.15,0,0,1,7.83,2.39q3,2.39,3,7.29v19.8Zm0-12.32a10.28,10.28,0,0,0-2.73-.94,19.1,19.1,0,0,0-3.87-.33,7.27,7.27,0,0,0-4.35,1.16,3.66,3.66,0,0,0-1.59,3.13,4.58,4.58,0,0,0,1.37,3.47A5.84,5.84,0,0,0,245,64.37a7.65,7.65,0,0,0,4.15-1.16A9.87,9.87,0,0,0,252,60.68Z"/><path class="cls-2" d="M275,79.05h-6l4.18-10.72L262.52,40h6.21l4.73,14.14c.23.62.46,1.34.72,2.14s.5,1.62.74,2.42l.66,2.23a16,16,0,0,1,.41,1.62c.12-.44.27-1,.47-1.67s.42-1.41.66-2.18.49-1.55.74-2.34.5-1.49.72-2.11L283.47,40h6Z"/><use width="69.26" height="69.26" transform="translate(67.29 14.54)" xlink:href="#relay-logo"/></symbol><symbol id="lf-box" data-name="lf-box" viewBox="0 0 104 104"><rect class="cls-1" x="1" y="1" width="102" height="102" rx="18.33"/><path class="cls-1" d="M84.67,2A17.33,17.33,0,0,1,102,19.33V84.67A17.33,17.33,0,0,1,84.67,102H19.33A17.33,17.33,0,0,1,2,84.67V19.33A17.33,17.33,0,0,1,19.33,2H84.67m0-2H19.33A19.35,19.35,0,0,0,0,19.33V84.67A19.35,19.35,0,0,0,19.33,104H84.67A19.35,19.35,0,0,0,104,84.67V19.33A19.35,19.35,0,0,0,84.67,0Z"/><rect class="cls-1" x="4" y="4" width="96" height="96" rx="15.33"/><path class="cls-2" d="M84.67,6A13.35,13.35,0,0,1,98,19.33V84.67A13.35,13.35,0,0,1,84.67,98H19.33A13.35,13.35,0,0,1,6,84.67V19.33A13.35,13.35,0,0,1,19.33,6H84.67m0-4H19.33A17.33,17.33,0,0,0,2,19.33V84.67A17.33,17.33,0,0,0,19.33,102H84.67A17.33,17.33,0,0,0,102,84.67V19.33A17.33,17.33,0,0,0,84.67,2Z"/><path class="cls-2" d="M51.21,71.58H31.89v-42h5.88V65.82H51.21Z"/><path class="cls-2" d="M77,35.28H62.85V46.8h9.06v5.64H62.85V71.58H57v-42H77Z"/></symbol></defs><g id="Layer_2" data-name="Layer 2"><g id="Layer_1-2" data-name="Layer 1"><use width="359.44" height="100.02" transform="translate(126.22 2)" xlink:href="#relay-logo-box"/><use width="104" height="104" xlink:href="#lf-box"/></g></g></svg>