<svg xmlns="http://www.w3.org/2000/svg" viewBox="0 0 400 400"><defs><style>.cls-1{fill:#fff;}.cls-2,.cls-3{fill:#231f20;}.cls-3{font-size:240px;font-family:InterstateCond;}</style></defs><g id="Layer_2" data-name="Layer 2"><g id="Layer_1-2" data-name="Layer 1"><rect class="cls-1" x="8" y="8" width="384" height="384" rx="61.33"/><path class="cls-2" d="M330.67,16A53.4,53.4,0,0,1,384,69.33V330.67A53.4,53.4,0,0,1,330.67,384H69.33A53.4,53.4,0,0,1,16,330.67V69.33A53.4,53.4,0,0,1,69.33,16H330.67m0-16H69.33A69.33,69.33,0,0,0,0,69.33V330.67A69.33,69.33,0,0,0,69.33,400H330.67A69.33,69.33,0,0,0,400,330.67V69.33A69.33,69.33,0,0,0,330.67,0Z"/><text class="cls-3" transform="translate(102.76 278.32)">LF</text></g></g></svg>