<svg xmlns="http://www.w3.org/2000/svg" xmlns:xlink="http://www.w3.org/1999/xlink" viewBox="0 0 416 416"><defs><style>.cls-1{fill:#fff;}.cls-2,.cls-3{fill:#231f20;}.cls-3{font-size:60px;font-family:InterstateCond;}</style><symbol id="lf-box" data-name="lf-box" viewBox="0 0 104 104"><rect class="cls-1" x="1" y="1" width="102" height="102" rx="18.33"/><path class="cls-1" d="M84.67,2A17.33,17.33,0,0,1,102,19.33V84.67A17.33,17.33,0,0,1,84.67,102H19.33A17.33,17.33,0,0,1,2,84.67V19.33A17.33,17.33,0,0,1,19.33,2H84.67m0-2H19.33A19.35,19.35,0,0,0,0,19.33V84.67A19.35,19.35,0,0,0,19.33,104H84.67A19.35,19.35,0,0,0,104,84.67V19.33A19.35,19.35,0,0,0,84.67,0Z"/><rect class="cls-1" x="4" y="4" width="96" height="96" rx="15.33"/><path class="cls-2" d="M84.67,6A13.35,13.35,0,0,1,98,19.33V84.67A13.35,13.35,0,0,1,84.67,98H19.33A13.35,13.35,0,0,1,6,84.67V19.33A13.35,13.35,0,0,1,19.33,6H84.67m0-4H19.33A17.33,17.33,0,0,0,2,19.33V84.67A17.33,17.33,0,0,0,19.33,102H84.67A17.33,17.33,0,0,0,102,84.67V19.33A17.33,17.33,0,0,0,84.67,2Z"/><text class="cls-3" transform="translate(27.69 71.58)">LF</text></symbol></defs><g id="Layer_2" data-name="Layer 2"><g id="Layer_1-2" data-name="Layer 1"><use width="104" height="104" transform="translate(0 0) scale(4)" xlink:href="#lf-box"/></g></g></svg>