<svg xmlns="http://www.w3.org/2000/svg" xmlns:xlink="http://www.w3.org/1999/xlink" viewBox="0 0 1636 415.87"><defs><style>.cls-1{fill:#fff;}.cls-2{fill:#231f20;}</style><symbol id="localfirst-box" data-name="localfirst-box" viewBox="0 0 409 103.97"><rect class="cls-1" x="4" y="4" width="401" height="95.97" rx="15.33"/><path class="cls-2" d="M389.67,6A13.35,13.35,0,0,1,403,19.33v65.3A13.35,13.35,0,0,1,389.67,98H19.33A13.35,13.35,0,0,1,6,84.63V19.33A13.35,13.35,0,0,1,19.33,6H389.67m0-4H19.33A17.33,17.33,0,0,0,2,19.33v65.3A17.33,17.33,0,0,0,19.33,102H389.67A17.33,17.33,0,0,0,407,84.63V19.33A17.33,17.33,0,0,0,389.67,2Z"/><path class="cls-1" d="M389.67,2A17.33,17.33,0,0,1,407,19.33v65.3A17.33,17.33,0,0,1,389.67,102H19.33A17.33,17.33,0,0,1,2,84.63V19.33A17.33,17.33,0,0,1,19.33,2H389.67m0-2H19.33A19.35,19.35,0,0,0,0,19.33v65.3A19.36,19.36,0,0,0,19.33,104H389.67A19.36,19.36,0,0,0,409,84.63V19.33A19.35,19.35,0,0,0,389.67,0Z"/><path class="cls-2" d="M84.8,72.63H64.57v-44h6.16v38H84.8Z"/><path class="cls-2" d="M115.84,50.54q0,10.17-3.2,16.13-3.52,6.58-10.18,6.58t-10-6.52q-3.15-5.9-3.15-16.06t3.15-16.13Q95.86,28,102.52,28t10.18,6.53Q115.84,40.38,115.84,50.54Zm-6.28.16A34.42,34.42,0,0,0,108,39.32q-1.89-5.2-5.59-5.21-6.86,0-6.85,16.46a34.32,34.32,0,0,0,1.57,11.37q1.81,5.22,5.53,5.22Q109.55,67.16,109.56,50.7Z"/><path class="cls-2" d="M146.13,62.19q-2.32,11.07-11.69,11.06-6.72,0-10-6.58-2.9-5.84-2.89-16t3.08-16.13Q128,28,134.63,28q9.62,0,11.44,10.74l-6.23,1.58a10.08,10.08,0,0,0-1.75-4.53,4.43,4.43,0,0,0-3.65-1.57q-6.6,0-6.6,16.37a35.2,35.2,0,0,0,1.51,11.29q1.83,5.2,5.53,5.2a4.31,4.31,0,0,0,3.46-1.55,15.48,15.48,0,0,0,2.07-5.11Z"/><path class="cls-2" d="M178.3,72.63h-6.72L169,61h-9.55l-2.51,11.63H150.4l10.81-44h6.34ZM167.74,55.16l-1.63-7.42q-.31-1.32-1.89-9.61-.61,3.33-1.88,9.61l-1.63,7.42Z"/><path class="cls-2" d="M204.5,72.63H184.27v-44h6.16v38H204.5Z"/><path class="cls-2" d="M245.34,34.61H230.51V46.68H240v5.9h-9.49v20h-6.15v-44h21Z"/><path class="cls-2" d="M257.72,72.63h-6.16v-44h6.16Z"/><path class="cls-2" d="M291.59,72.63h-6.85l-6.66-19.17H273V72.63h-6.16v-44h12.38a12.58,12.58,0,0,1,8.55,2.83q3.71,3.21,3.7,9.36,0,8.87-6.91,11.56ZM285.12,41q0-6.41-6.41-6.41H273V47.55h5.72Q285.12,47.55,285.12,41Z"/><path class="cls-2" d="M319.87,61.21a12.16,12.16,0,0,1-3.15,8.72q-3.14,3.33-8.86,3.32-7.41,0-11.62-7.12l4.84-3.87q3.07,4.91,7.16,4.9,5.28,0,5.28-5.59A7,7,0,0,0,312,57.11a26.33,26.33,0,0,0-5.9-4.81A26,26,0,0,1,299.88,47a12.79,12.79,0,0,1-2.57-8,10.42,10.42,0,0,1,11.12-11q6.6,0,10.68,6l-4.52,4a11.4,11.4,0,0,0-3-3,6.34,6.34,0,0,0-3.36-.82q-4.59,0-4.59,4.64A6.44,6.44,0,0,0,305,42.89,21.89,21.89,0,0,0,310.06,47a29.36,29.36,0,0,1,7,5.71A13.19,13.19,0,0,1,319.87,61.21Z"/><path class="cls-2" d="M346.76,34.67h-8.11v38H332.5v-38h-8.11v-6h22.37Z"/></symbol></defs><g id="Layer_2" data-name="Layer 2"><g id="Layer_1-2" data-name="Layer 1"><use width="409" height="103.97" transform="translate(0 0) scale(4)" xlink:href="#localfirst-box"/></g></g></svg>