<svg xmlns="http://www.w3.org/2000/svg" xmlns:xlink="http://www.w3.org/1999/xlink" viewBox="0 0 790.59 103.97"><defs><style>.cls-1{fill:#fff;}.cls-2,.cls-3,.cls-5,.cls-6{fill:#231f20;}.cls-3{font-size:62.84px;font-family:InterstateCond;}.cls-4{fill:#f7921e;}.cls-5{fill-rule:evenodd;}.cls-6{font-size:55px;font-family:Interstate-Regular;}.cls-7{letter-spacing:-0.02em;}.cls-8{letter-spacing:-0.02em;}</style><symbol id="localfirst-box" data-name="localfirst-box" viewBox="0 0 409 103.97"><rect class="cls-1" x="4" y="4" width="401" height="95.97" rx="15.33"/><path class="cls-2" d="M389.67,6A13.35,13.35,0,0,1,403,19.33v65.3A13.35,13.35,0,0,1,389.67,98H19.33A13.35,13.35,0,0,1,6,84.63V19.33A13.35,13.35,0,0,1,19.33,6H389.67m0-4H19.33A17.33,17.33,0,0,0,2,19.33v65.3A17.33,17.33,0,0,0,19.33,102H389.67A17.33,17.33,0,0,0,407,84.63V19.33A17.33,17.33,0,0,0,389.67,2Z"/><path class="cls-1" d="M389.67,2A17.33,17.33,0,0,1,407,19.33v65.3A17.33,17.33,0,0,1,389.67,102H19.33A17.33,17.33,0,0,1,2,84.63V19.33A17.33,17.33,0,0,1,19.33,2H389.67m0-2H19.33A19.35,19.35,0,0,0,0,19.33v65.3A19.36,19.36,0,0,0,19.33,104H389.67A19.36,19.36,0,0,0,409,84.63V19.33A19.35,19.35,0,0,0,389.67,0Z"/><text class="cls-3" transform="translate(60.17 72.63)">LOCAL FIRST</text></symbol><symbol id="relay-logo" data-name="relay-logo" viewBox="0 0 69.26 69.26"><path class="cls-4" d="M34.63,66.26A5.13,5.13,0,0,1,31,64.74L4.52,38.29a5.17,5.17,0,0,1,0-7.32L31,4.52a5.17,5.17,0,0,1,7.32,0L64.74,31a5.17,5.17,0,0,1,0,7.32L38.29,64.74A5.13,5.13,0,0,1,34.63,66.26Z"/><path class="cls-2" d="M34.63,4a4.19,4.19,0,0,1,3,1.22L64,31.67a4.19,4.19,0,0,1,0,5.92L37.59,64a4.2,4.2,0,0,1-5.92,0L5.22,37.59a4.19,4.19,0,0,1,0-5.92L31.67,5.22a4.19,4.19,0,0,1,3-1.22m0-2a6.16,6.16,0,0,0-4.37,1.81L3.81,30.26a6.19,6.19,0,0,0,0,8.74L30.26,65.45a6.18,6.18,0,0,0,8.74,0L65.45,39a6.19,6.19,0,0,0,0-8.74L39,3.81A6.16,6.16,0,0,0,34.63,2Z"/><path class="cls-4" d="M34.63,2A6.16,6.16,0,0,1,39,3.81L65.45,30.26a6.19,6.19,0,0,1,0,8.74L39,65.45a6.18,6.18,0,0,1-8.74,0L3.81,39a6.19,6.19,0,0,1,0-8.74L30.26,3.81A6.16,6.16,0,0,1,34.63,2m0-2a8.12,8.12,0,0,0-5.79,2.4L2.4,28.84a8.18,8.18,0,0,0,0,11.58L28.84,66.86a8.18,8.18,0,0,0,11.58,0L66.86,40.42a8.18,8.18,0,0,0,0-11.58L40.42,2.4A8.12,8.12,0,0,0,34.63,0Z"/><circle class="cls-2" cx="36.12" cy="23.27" r="3.02"/><rect class="cls-2" x="18.5" y="27.1" width="6.18" height="7.69"/><polygon class="cls-5" points="25.23 27.1 39.53 27.1 44.83 28.17 45.69 25.67 47.1 25.96 45.97 30.54 39.57 30.07 40.78 49.01 39.39 48.99 36.73 38.11 34.93 48.99 33.6 48.99 33.45 30.11 25.23 28.51 25.23 27.1"/></symbol><symbol id="relay-logo-box" data-name="relay-logo-box" viewBox="0 0 359.44 100.02"><rect class="cls-4" x="3" y="3" width="353.44" height="94.02" rx="20.55"/><path class="cls-2" d="M335.89,6a17.57,17.57,0,0,1,17.55,17.55V76.47A17.57,17.57,0,0,1,335.89,94H23.55A17.57,17.57,0,0,1,6,76.47V23.55A17.57,17.57,0,0,1,23.55,6H335.89m0-6H23.55A23.55,23.55,0,0,0,0,23.55V76.47A23.55,23.55,0,0,0,23.55,100H335.89a23.55,23.55,0,0,0,23.55-23.55V23.55A23.55,23.55,0,0,0,335.89,0Z"/><path class="cls-4" d="M335.89,3a20.57,20.57,0,0,1,20.55,20.55V76.47A20.57,20.57,0,0,1,335.89,97H23.55A20.57,20.57,0,0,1,3,76.47V23.55A20.57,20.57,0,0,1,23.55,3H335.89m0-3H23.55A23.55,23.55,0,0,0,0,23.55V76.47A23.55,23.55,0,0,0,23.55,100H335.89a23.55,23.55,0,0,0,23.55-23.55V23.55A23.55,23.55,0,0,0,335.89,0Z"/><text class="cls-6" transform="translate(149.44 68.88)"><tspan class="cls-7">R</tspan><tspan x="36.79" y="0">el</tspan><tspan class="cls-8" x="81.84" y="0">a</tspan><tspan x="111.26" y="0">y</tspan></text><use width="69.26" height="69.26" transform="translate(67.29 14.54)" xlink:href="#relay-logo"/></symbol></defs><g id="Layer_2" data-name="Layer 2"><g id="Layer_1-2" data-name="Layer 1"><use width="409" height="103.97" xlink:href="#localfirst-box"/><use width="359.44" height="100.02" transform="translate(431.15 1.34)" xlink:href="#relay-logo-box"/></g></g></svg>