<svg xmlns="http://www.w3.org/2000/svg" viewBox="0 0 580.98 99.97"><defs><style>.cls-1{fill:#f7921e;}.cls-10,.cls-11,.cls-2,.cls-3{fill:#231f20;}.cls-3{font-size:60px;font-family:Interstate-Regular;}.cls-4{letter-spacing:-0.01em;}.cls-5{letter-spacing:0em;}.cls-6{letter-spacing:-0.02em;}.cls-7{letter-spacing:-0.02em;}.cls-8{letter-spacing:-0.01em;}.cls-9{letter-spacing:0em;}.cls-10{font-size:36px;font-family:InterstateCond;}.cls-11{fill-rule:evenodd;}</style></defs><g id="Layer_2" data-name="Layer 2"><g id="Layer_1-2" data-name="Layer 1"><rect class="cls-1" x="2" y="2" width="401" height="95.97" rx="15.33"/><path class="cls-2" d="M387.67,4A13.35,13.35,0,0,1,401,17.33v65.3A13.35,13.35,0,0,1,387.67,96H17.33A13.35,13.35,0,0,1,4,82.63V17.33A13.35,13.35,0,0,1,17.33,4H387.67m0-4H17.33A17.33,17.33,0,0,0,0,17.33v65.3A17.33,17.33,0,0,0,17.33,100H387.67A17.33,17.33,0,0,0,405,82.63V17.33A17.33,17.33,0,0,0,387.67,0Z"/><path class="cls-1" d="M387.67,2A15.35,15.35,0,0,1,403,17.33v65.3A15.35,15.35,0,0,1,387.67,98H17.33A15.35,15.35,0,0,1,2,82.63V17.33A15.35,15.35,0,0,1,17.33,2H387.67m0-2H17.33A17.33,17.33,0,0,0,0,17.33v65.3A17.33,17.33,0,0,0,17.33,100H387.67A17.33,17.33,0,0,0,405,82.63V17.33A17.33,17.33,0,0,0,387.67,0Z"/><text class="cls-3" transform="translate(52.35 69.35)"><tspan class="cls-4">L</tspan><tspan class="cls-5" x="34.8" y="0">o</tspan><tspan class="cls-6" x="69" y="0">c</tspan><tspan x="99.3" y="0">al Fi</tspan><tspan class="cls-7" x="215.22" y="0">r</tspan><tspan class="cls-8" x="239.1" y="0">s</tspan><tspan class="cls-9" x="268.44" y="0">t</tspan></text><text class="cls-10" transform="translate(496.03 61.47)">RELAY</text><path class="cls-1" d="M454.63,80.27a4.15,4.15,0,0,1-3-1.22L425.22,52.6a4.18,4.18,0,0,1,0-5.91l26.45-26.45a4.18,4.18,0,0,1,5.92,0L484,46.69a4.18,4.18,0,0,1,0,5.91L457.59,79.05A4.15,4.15,0,0,1,454.63,80.27Z"/><path class="cls-2" d="M454.63,21a2.17,2.17,0,0,1,1.54.64L482.62,48.1a2.17,2.17,0,0,1,.64,1.54,2.2,2.2,0,0,1-.64,1.55L456.17,77.63a2.17,2.17,0,0,1-3.08,0L426.64,51.19a2.2,2.2,0,0,1-.64-1.55,2.17,2.17,0,0,1,.64-1.54l26.45-26.45a2.17,2.17,0,0,1,1.54-.64m0-4a6.2,6.2,0,0,0-4.37,1.81L423.81,45.27a6.19,6.19,0,0,0,0,8.74l26.45,26.45a6.18,6.18,0,0,0,8.74,0L485.45,54a6.19,6.19,0,0,0,0-8.74L459,18.82A6.2,6.2,0,0,0,454.63,17Z"/><path class="cls-1" d="M454.63,19a4.16,4.16,0,0,1,3,1.23L484,46.69a4.18,4.18,0,0,1,0,5.91L457.59,79.05a4.2,4.2,0,0,1-5.92,0L425.22,52.6a4.18,4.18,0,0,1,0-5.91l26.45-26.45a4.16,4.16,0,0,1,3-1.23m0-2a6.2,6.2,0,0,0-4.37,1.81L423.81,45.27a6.19,6.19,0,0,0,0,8.74l26.45,26.45a6.18,6.18,0,0,0,8.74,0L485.45,54a6.19,6.19,0,0,0,0-8.74L459,18.82A6.2,6.2,0,0,0,454.63,17Z"/><circle class="cls-2" cx="456.12" cy="38.28" r="3.02"/><rect class="cls-2" x="438.5" y="42.12" width="6.18" height="7.69"/><polygon class="cls-11" points="445.23 42.12 459.53 42.12 464.83 43.18 465.69 40.68 467.1 40.97 465.97 45.55 459.57 45.08 460.79 64.02 459.39 64.01 456.73 53.12 454.93 64 453.6 64 453.45 45.12 445.23 43.53 445.23 42.12"/></g></g></svg>