<svg xmlns="http://www.w3.org/2000/svg" xmlns:xlink="http://www.w3.org/1999/xlink" viewBox="0 0 790.59 103.97"><defs><style>.cls-1{fill:#fff;}.cls-2,.cls-4{fill:#231f20;}.cls-3{fill:#f7921e;}.cls-4{fill-rule:evenodd;}</style><symbol id="localfirst-box" data-name="localfirst-box" viewBox="0 0 409 103.97"><rect class="cls-1" x="4" y="4" width="401" height="95.97" rx="15.33"/><path class="cls-2" d="M389.67,6A13.35,13.35,0,0,1,403,19.33v65.3A13.35,13.35,0,0,1,389.67,98H19.33A13.35,13.35,0,0,1,6,84.63V19.33A13.35,13.35,0,0,1,19.33,6H389.67m0-4H19.33A17.33,17.33,0,0,0,2,19.33v65.3A17.33,17.33,0,0,0,19.33,102H389.67A17.33,17.33,0,0,0,407,84.63V19.33A17.33,17.33,0,0,0,389.67,2Z"/><path class="cls-1" d="M389.67,2A17.33,17.33,0,0,1,407,19.33v65.3A17.33,17.33,0,0,1,389.67,102H19.33A17.33,17.33,0,0,1,2,84.63V19.33A17.33,17.33,0,0,1,19.33,2H389.67m0-2H19.33A19.35,19.35,0,0,0,0,19.33v65.3A19.36,19.36,0,0,0,19.33,104H389.67A19.36,19.36,0,0,0,409,84.63V19.33A19.35,19.35,0,0,0,389.67,0Z"/><path class="cls-2" d="M84.8,72.63H64.57v-44h6.16v38H84.8Z"/><path class="cls-2" d="M115.84,50.54q0,10.17-3.2,16.13-3.52,6.58-10.18,6.58t-10-6.52q-3.15-5.9-3.15-16.06t3.15-16.13Q95.86,28,102.52,28t10.18,6.53Q115.84,40.38,115.84,50.54Zm-6.28.16A34.42,34.42,0,0,0,108,39.32q-1.89-5.2-5.59-5.21-6.86,0-6.85,16.46a34.32,34.32,0,0,0,1.57,11.37q1.81,5.22,5.53,5.22Q109.55,67.16,109.56,50.7Z"/><path class="cls-2" d="M146.13,62.19q-2.32,11.07-11.69,11.06-6.72,0-10-6.58-2.9-5.84-2.89-16t3.08-16.13Q128,28,134.63,28q9.62,0,11.44,10.74l-6.23,1.58a10.08,10.08,0,0,0-1.75-4.53,4.43,4.43,0,0,0-3.65-1.57q-6.6,0-6.6,16.37a35.2,35.2,0,0,0,1.51,11.29q1.83,5.2,5.53,5.2a4.31,4.31,0,0,0,3.46-1.55,15.48,15.48,0,0,0,2.07-5.11Z"/><path class="cls-2" d="M178.3,72.63h-6.72L169,61h-9.55l-2.51,11.63H150.4l10.81-44h6.34ZM167.74,55.16l-1.63-7.42q-.31-1.32-1.89-9.61-.61,3.33-1.88,9.61l-1.63,7.42Z"/><path class="cls-2" d="M204.5,72.63H184.27v-44h6.16v38H204.5Z"/><path class="cls-2" d="M245.34,34.61H230.51V46.68H240v5.9h-9.49v20h-6.15v-44h21Z"/><path class="cls-2" d="M257.72,72.63h-6.16v-44h6.16Z"/><path class="cls-2" d="M291.59,72.63h-6.85l-6.66-19.17H273V72.63h-6.16v-44h12.38a12.58,12.58,0,0,1,8.55,2.83q3.71,3.21,3.7,9.36,0,8.87-6.91,11.56ZM285.12,41q0-6.41-6.41-6.41H273V47.55h5.72Q285.12,47.55,285.12,41Z"/><path class="cls-2" d="M319.87,61.21a12.16,12.16,0,0,1-3.15,8.72q-3.14,3.33-8.86,3.32-7.41,0-11.62-7.12l4.84-3.87q3.07,4.91,7.16,4.9,5.28,0,5.28-5.59A7,7,0,0,0,312,57.11a26.33,26.33,0,0,0-5.9-4.81A26,26,0,0,1,299.88,47a12.79,12.79,0,0,1-2.57-8,10.42,10.42,0,0,1,11.12-11q6.6,0,10.68,6l-4.52,4a11.4,11.4,0,0,0-3-3,6.34,6.34,0,0,0-3.36-.82q-4.59,0-4.59,4.64A6.44,6.44,0,0,0,305,42.89,21.89,21.89,0,0,0,310.06,47a29.36,29.36,0,0,1,7,5.71A13.19,13.19,0,0,1,319.87,61.21Z"/><path class="cls-2" d="M346.76,34.67h-8.11v38H332.5v-38h-8.11v-6h22.37Z"/></symbol><symbol id="relay-logo" data-name="relay-logo" viewBox="0 0 69.26 69.26"><path class="cls-3" d="M34.63,66.26A5.13,5.13,0,0,1,31,64.74L4.52,38.29a5.17,5.17,0,0,1,0-7.32L31,4.52a5.17,5.17,0,0,1,7.32,0L64.74,31a5.17,5.17,0,0,1,0,7.32L38.29,64.74A5.13,5.13,0,0,1,34.63,66.26Z"/><path class="cls-2" d="M34.63,4a4.19,4.19,0,0,1,3,1.22L64,31.67a4.19,4.19,0,0,1,0,5.92L37.59,64a4.2,4.2,0,0,1-5.92,0L5.22,37.59a4.19,4.19,0,0,1,0-5.92L31.67,5.22a4.19,4.19,0,0,1,3-1.22m0-2a6.16,6.16,0,0,0-4.37,1.81L3.81,30.26a6.19,6.19,0,0,0,0,8.74L30.26,65.45a6.18,6.18,0,0,0,8.74,0L65.45,39a6.19,6.19,0,0,0,0-8.74L39,3.81A6.16,6.16,0,0,0,34.63,2Z"/><path class="cls-3" d="M34.63,2A6.16,6.16,0,0,1,39,3.81L65.45,30.26a6.19,6.19,0,0,1,0,8.74L39,65.45a6.18,6.18,0,0,1-8.74,0L3.81,39a6.19,6.19,0,0,1,0-8.74L30.26,3.81A6.16,6.16,0,0,1,34.63,2m0-2a8.12,8.12,0,0,0-5.79,2.4L2.4,28.84a8.18,8.18,0,0,0,0,11.58L28.84,66.86a8.18,8.18,0,0,0,11.58,0L66.86,40.42a8.18,8.18,0,0,0,0-11.58L40.42,2.4A8.12,8.12,0,0,0,34.63,0Z"/><circle class="cls-2" cx="36.12" cy="23.27" r="3.02"/><rect class="cls-2" x="18.5" y="27.1" width="6.18" height="7.69"/><polygon class="cls-4" points="25.23 27.1 39.53 27.1 44.83 28.17 45.69 25.67 47.1 25.96 45.97 30.54 39.57 30.07 40.78 49.01 39.39 48.99 36.73 38.11 34.93 48.99 33.6 48.99 33.45 30.11 25.23 28.51 25.23 27.1"/></symbol><symbol id="relay-logo-box" data-name="relay-logo-box" viewBox="0 0 359.44 100.02"><rect class="cls-3" x="3" y="3" width="353.44" height="94.02" rx="20.55"/><path class="cls-2" d="M335.89,6a17.57,17.57,0,0,1,17.55,17.55V76.47A17.57,17.57,0,0,1,335.89,94H23.55A17.57,17.57,0,0,1,6,76.47V23.55A17.57,17.57,0,0,1,23.55,6H335.89m0-6H23.55A23.55,23.55,0,0,0,0,23.55V76.47A23.55,23.55,0,0,0,23.55,100H335.89a23.55,23.55,0,0,0,23.55-23.55V23.55A23.55,23.55,0,0,0,335.89,0Z"/><path class="cls-3" d="M335.89,3a20.57,20.57,0,0,1,20.55,20.55V76.47A20.57,20.57,0,0,1,335.89,97H23.55A20.57,20.57,0,0,1,3,76.47V23.55A20.57,20.57,0,0,1,23.55,3H335.89m0-3H23.55A23.55,23.55,0,0,0,0,23.55V76.47A23.55,23.55,0,0,0,23.55,100H335.89a23.55,23.55,0,0,0,23.55-23.55V23.55A23.55,23.55,0,0,0,335.89,0Z"/><path class="cls-2" d="M183.71,41.87a11.6,11.6,0,0,1-2.26,7.48,11.15,11.15,0,0,1-6.21,3.8l7.86,15.73h-6.64l-7.62-15.24h-8.67V68.88h-5.72V30.38h16.88a16,16,0,0,1,4.76.69A11.17,11.17,0,0,1,180,33.16a9.71,9.71,0,0,1,2.7,3.57A12.31,12.31,0,0,1,183.71,41.87Zm-5.83.17a5.87,5.87,0,0,0-1.79-4.62,6.79,6.79,0,0,0-4.74-1.6H160.17V48.2h11.18a7.12,7.12,0,0,0,4.72-1.52A5.71,5.71,0,0,0,177.88,42Z"/><path class="cls-2" d="M213.85,53.86c0,.52,0,1-.06,1.46s-.07.83-.11,1.13H194.6a11.67,11.67,0,0,0,.88,3.57,7.75,7.75,0,0,0,1.65,2.45,6.47,6.47,0,0,0,2.2,1.43,7,7,0,0,0,2.53.47,8.68,8.68,0,0,0,3.32-.61,12.48,12.48,0,0,0,2.95-1.7l3.35,3.63a14.12,14.12,0,0,1-4.29,2.8,14.62,14.62,0,0,1-5.66,1,12,12,0,0,1-4.82-1,11.23,11.23,0,0,1-4-2.91,14.15,14.15,0,0,1-2.7-4.73,19.12,19.12,0,0,1-1-6.38A20.31,20.31,0,0,1,190,48a13.67,13.67,0,0,1,2.58-4.71,10.82,10.82,0,0,1,4-2.88,13,13,0,0,1,5.14-1,11.73,11.73,0,0,1,5.36,1.15,10.87,10.87,0,0,1,3.8,3.14,13.45,13.45,0,0,1,2.25,4.62A20.21,20.21,0,0,1,213.85,53.86ZM207.6,49a6.58,6.58,0,0,0-1.23-2.31,5.92,5.92,0,0,0-2.07-1.57,7.08,7.08,0,0,0-3-.58,5.77,5.77,0,0,0-4.54,1.9,9.4,9.4,0,0,0-2.06,5.36h13.42A12.51,12.51,0,0,0,207.6,49Z"/><path class="cls-2" d="M221.16,68.88V31.75l5.72-3v40.1Z"/><path class="cls-2" d="M252,68.88V66a13,13,0,0,1-3.52,2.47,10,10,0,0,1-4.4,1,12.51,12.51,0,0,1-3.55-.52,9.19,9.19,0,0,1-3.22-1.68,8.84,8.84,0,0,1-2.34-3,10.33,10.33,0,0,1-.9-4.51,9.18,9.18,0,0,1,.88-4.18,8,8,0,0,1,2.42-2.92A10.15,10.15,0,0,1,241,51a17.7,17.7,0,0,1,4.56-.55A15.9,15.9,0,0,1,252,51.5V49.35a4.64,4.64,0,0,0-1.41-3.63,5.84,5.84,0,0,0-4-1.26,16.61,16.61,0,0,0-4,.44A14.3,14.3,0,0,0,239,46.27L236.84,42a17.78,17.78,0,0,1,4.45-1.92,20.34,20.34,0,0,1,5.45-.66,12.15,12.15,0,0,1,7.83,2.39q3,2.39,3,7.29v19.8Zm0-12.32a10.28,10.28,0,0,0-2.73-.94,19.1,19.1,0,0,0-3.87-.33,7.27,7.27,0,0,0-4.35,1.16,3.66,3.66,0,0,0-1.59,3.13,4.58,4.58,0,0,0,1.37,3.47A5.84,5.84,0,0,0,245,64.37a7.65,7.65,0,0,0,4.15-1.16A9.87,9.87,0,0,0,252,60.68Z"/><path class="cls-2" d="M275,79.05h-6l4.18-10.72L262.52,40h6.21l4.73,14.14c.23.62.46,1.34.72,2.14s.5,1.62.74,2.42l.66,2.23a16,16,0,0,1,.41,1.62c.12-.44.27-1,.47-1.67s.42-1.41.66-2.18.49-1.55.74-2.34.5-1.49.72-2.11L283.47,40h6Z"/><use width="69.26" height="69.26" transform="translate(67.29 14.54)" xlink:href="#relay-logo"/></symbol></defs><g id="Layer_2" data-name="Layer 2"><g id="Layer_1-2" data-name="Layer 1"><use width="409" height="103.97" xlink:href="#localfirst-box"/><use width="359.44" height="100.02" transform="translate(431.15 1.34)" xlink:href="#relay-logo-box"/></g></g></svg>