<svg xmlns="http://www.w3.org/2000/svg" viewBox="0 0 158.98 65.26"><defs><style>.cls-1{font-size:36px;font-family:InterstateCond;}.cls-1,.cls-3,.cls-4{fill:#231f20;}.cls-2{fill:#f7921e;}.cls-4{fill-rule:evenodd;}</style></defs><g id="Layer_2" data-name="Layer 2"><g id="Layer_1-2" data-name="Layer 1"><text class="cls-1" transform="translate(74.03 44.46)">RELAY</text><path class="cls-2" d="M32.63,63.26a4.15,4.15,0,0,1-3-1.22L3.22,35.59a4.19,4.19,0,0,1,0-5.92L29.67,3.22a4.2,4.2,0,0,1,5.92,0L62,29.67a4.19,4.19,0,0,1,0,5.92L35.59,62A4.15,4.15,0,0,1,32.63,63.26Z"/><path class="cls-3" d="M32.63,4a2.17,2.17,0,0,1,1.54.64L60.62,31.09a2.18,2.18,0,0,1,0,3.08L34.17,60.62a2.17,2.17,0,0,1-3.08,0L4.64,34.17a2.17,2.17,0,0,1,0-3.08L31.09,4.64A2.17,2.17,0,0,1,32.63,4m0-4a6.16,6.16,0,0,0-4.37,1.81L1.81,28.26a6.19,6.19,0,0,0,0,8.74L28.26,63.45a6.18,6.18,0,0,0,8.74,0L63.45,37a6.19,6.19,0,0,0,0-8.74L37,1.81A6.16,6.16,0,0,0,32.63,0Z"/><path class="cls-2" d="M32.63,2a4.15,4.15,0,0,1,3,1.22L62,29.67a4.19,4.19,0,0,1,0,5.92L35.59,62a4.2,4.2,0,0,1-5.92,0L3.22,35.59a4.19,4.19,0,0,1,0-5.92L29.67,3.22a4.15,4.15,0,0,1,3-1.22m0-2a6.16,6.16,0,0,0-4.37,1.81L1.81,28.26a6.19,6.19,0,0,0,0,8.74L28.26,63.45a6.18,6.18,0,0,0,8.74,0L63.45,37a6.19,6.19,0,0,0,0-8.74L37,1.81A6.16,6.16,0,0,0,32.63,0Z"/><circle class="cls-3" cx="34.12" cy="21.27" r="3.02"/><rect class="cls-3" x="16.5" y="25.1" width="6.18" height="7.69"/><polygon class="cls-4" points="23.23 25.1 37.53 25.1 42.83 26.17 43.69 23.67 45.1 23.96 43.97 28.54 37.57 28.07 38.78 47.01 37.39 46.99 34.73 36.11 32.93 46.99 31.6 46.99 31.45 28.11 23.23 26.51 23.23 25.1"/></g></g></svg>