<svg xmlns="http://www.w3.org/2000/svg" xmlns:xlink="http://www.w3.org/1999/xlink" viewBox="0 0 277.01 277.04"><defs><style>.cls-1{fill:#f7921e;}.cls-2,.cls-3{fill:#231f20;}.cls-3{fill-rule:evenodd;}</style><symbol id="relay-logo" data-name="relay-logo" viewBox="0 0 69.26 69.26"><path class="cls-1" d="M34.63,66.26A5.13,5.13,0,0,1,31,64.74L4.52,38.29a5.17,5.17,0,0,1,0-7.32L31,4.52a5.17,5.17,0,0,1,7.32,0L64.74,31a5.17,5.17,0,0,1,0,7.32L38.29,64.74A5.13,5.13,0,0,1,34.63,66.26Z"/><path class="cls-2" d="M34.63,4a4.19,4.19,0,0,1,3,1.22L64,31.67a4.19,4.19,0,0,1,0,5.92L37.59,64a4.2,4.2,0,0,1-5.92,0L5.22,37.59a4.19,4.19,0,0,1,0-5.92L31.67,5.22a4.19,4.19,0,0,1,3-1.22m0-2a6.16,6.16,0,0,0-4.37,1.81L3.81,30.26a6.19,6.19,0,0,0,0,8.74L30.26,65.45a6.18,6.18,0,0,0,8.74,0L65.45,39a6.19,6.19,0,0,0,0-8.74L39,3.81A6.16,6.16,0,0,0,34.63,2Z"/><path class="cls-1" d="M34.63,2A6.16,6.16,0,0,1,39,3.81L65.45,30.26a6.19,6.19,0,0,1,0,8.74L39,65.45a6.18,6.18,0,0,1-8.74,0L3.81,39a6.19,6.19,0,0,1,0-8.74L30.26,3.81A6.16,6.16,0,0,1,34.63,2m0-2a8.12,8.12,0,0,0-5.79,2.4L2.4,28.84a8.18,8.18,0,0,0,0,11.58L28.84,66.86a8.18,8.18,0,0,0,11.58,0L66.86,40.42a8.18,8.18,0,0,0,0-11.58L40.42,2.4A8.12,8.12,0,0,0,34.63,0Z"/><circle class="cls-2" cx="36.12" cy="23.27" r="3.02"/><rect class="cls-2" x="18.5" y="27.1" width="6.18" height="7.69"/><polygon class="cls-3" points="25.23 27.1 39.53 27.1 44.83 28.17 45.69 25.67 47.1 25.96 45.97 30.54 39.57 30.07 40.78 49.01 39.39 48.99 36.73 38.11 34.93 48.99 33.6 48.99 33.45 30.11 25.23 28.51 25.23 27.1"/></symbol></defs><g id="Layer_2" data-name="Layer 2"><g id="Layer_1-2" data-name="Layer 1"><use width="69.26" height="69.26" transform="translate(-0.01 0) scale(4)" xlink:href="#relay-logo"/></g></g></svg>