<svg xmlns="http://www.w3.org/2000/svg" xmlns:xlink="http://www.w3.org/1999/xlink" viewBox="0 0 409 338.3"><defs><style>.cls-1{fill:#fff;}.cls-2,.cls-4{fill:#231f20;}.cls-3{fill:#f7921e;}.cls-4{fill-rule:evenodd;}</style><symbol id="localfirst-box" data-name="localfirst-box" viewBox="0 0 409 103.97"><rect class="cls-1" x="4" y="4" width="401" height="95.97" rx="15.33"/><path class="cls-2" d="M389.67,6A13.35,13.35,0,0,1,403,19.33v65.3A13.35,13.35,0,0,1,389.67,98H19.33A13.35,13.35,0,0,1,6,84.63V19.33A13.35,13.35,0,0,1,19.33,6H389.67m0-4H19.33A17.33,17.33,0,0,0,2,19.33v65.3A17.33,17.33,0,0,0,19.33,102H389.67A17.33,17.33,0,0,0,407,84.63V19.33A17.33,17.33,0,0,0,389.67,2Z"/><path class="cls-1" d="M389.67,2A17.33,17.33,0,0,1,407,19.33v65.3A17.33,17.33,0,0,1,389.67,102H19.33A17.33,17.33,0,0,1,2,84.63V19.33A17.33,17.33,0,0,1,19.33,2H389.67m0-2H19.33A19.35,19.35,0,0,0,0,19.33v65.3A19.36,19.36,0,0,0,19.33,104H389.67A19.36,19.36,0,0,0,409,84.63V19.33A19.35,19.35,0,0,0,389.67,0Z"/><path class="cls-2" d="M84.8,72.63H64.57v-44h6.16v38H84.8Z"/><path class="cls-2" d="M115.84,50.54q0,10.17-3.2,16.13-3.52,6.58-10.18,6.58t-10-6.52q-3.15-5.9-3.15-16.06t3.15-16.13Q95.86,28,102.52,28t10.18,6.53Q115.84,40.38,115.84,50.54Zm-6.28.16A34.42,34.42,0,0,0,108,39.32q-1.89-5.2-5.59-5.21-6.86,0-6.85,16.46a34.32,34.32,0,0,0,1.57,11.37q1.81,5.22,5.53,5.22Q109.55,67.16,109.56,50.7Z"/><path class="cls-2" d="M146.13,62.19q-2.32,11.07-11.69,11.06-6.72,0-10-6.58-2.9-5.84-2.89-16t3.08-16.13Q128,28,134.63,28q9.62,0,11.44,10.74l-6.23,1.58a10.08,10.08,0,0,0-1.75-4.53,4.43,4.43,0,0,0-3.65-1.57q-6.6,0-6.6,16.37a35.2,35.2,0,0,0,1.51,11.29q1.83,5.2,5.53,5.2a4.31,4.31,0,0,0,3.46-1.55,15.48,15.48,0,0,0,2.07-5.11Z"/><path class="cls-2" d="M178.3,72.63h-6.72L169,61h-9.55l-2.51,11.63H150.4l10.81-44h6.34ZM167.74,55.16l-1.63-7.42q-.31-1.32-1.89-9.61-.61,3.33-1.88,9.61l-1.63,7.42Z"/><path class="cls-2" d="M204.5,72.63H184.27v-44h6.16v38H204.5Z"/><path class="cls-2" d="M245.34,34.61H230.51V46.68H240v5.9h-9.49v20h-6.15v-44h21Z"/><path class="cls-2" d="M257.72,72.63h-6.16v-44h6.16Z"/><path class="cls-2" d="M291.59,72.63h-6.85l-6.66-19.17H273V72.63h-6.16v-44h12.38a12.58,12.58,0,0,1,8.55,2.83q3.71,3.21,3.7,9.36,0,8.87-6.91,11.56ZM285.12,41q0-6.41-6.41-6.41H273V47.55h5.72Q285.12,47.55,285.12,41Z"/><path class="cls-2" d="M319.87,61.21a12.16,12.16,0,0,1-3.15,8.72q-3.14,3.33-8.86,3.32-7.41,0-11.62-7.12l4.84-3.87q3.07,4.91,7.16,4.9,5.28,0,5.28-5.59A7,7,0,0,0,312,57.11a26.33,26.33,0,0,0-5.9-4.81A26,26,0,0,1,299.88,47a12.79,12.79,0,0,1-2.57-8,10.42,10.42,0,0,1,11.12-11q6.6,0,10.68,6l-4.52,4a11.4,11.4,0,0,0-3-3,6.34,6.34,0,0,0-3.36-.82q-4.59,0-4.59,4.64A6.44,6.44,0,0,0,305,42.89,21.89,21.89,0,0,0,310.06,47a29.36,29.36,0,0,1,7,5.71A13.19,13.19,0,0,1,319.87,61.21Z"/><path class="cls-2" d="M346.76,34.67h-8.11v38H332.5v-38h-8.11v-6h22.37Z"/></symbol><symbol id="relay-logo" data-name="relay-logo" viewBox="0 0 69.26 69.26"><path class="cls-3" d="M34.63,66.26A5.13,5.13,0,0,1,31,64.74L4.52,38.29a5.17,5.17,0,0,1,0-7.32L31,4.52a5.17,5.17,0,0,1,7.32,0L64.74,31a5.17,5.17,0,0,1,0,7.32L38.29,64.74A5.13,5.13,0,0,1,34.63,66.26Z"/><path class="cls-2" d="M34.63,4a4.19,4.19,0,0,1,3,1.22L64,31.67a4.19,4.19,0,0,1,0,5.92L37.59,64a4.2,4.2,0,0,1-5.92,0L5.22,37.59a4.19,4.19,0,0,1,0-5.92L31.67,5.22a4.19,4.19,0,0,1,3-1.22m0-2a6.16,6.16,0,0,0-4.37,1.81L3.81,30.26a6.19,6.19,0,0,0,0,8.74L30.26,65.45a6.18,6.18,0,0,0,8.74,0L65.45,39a6.19,6.19,0,0,0,0-8.74L39,3.81A6.16,6.16,0,0,0,34.63,2Z"/><path class="cls-3" d="M34.63,2A6.16,6.16,0,0,1,39,3.81L65.45,30.26a6.19,6.19,0,0,1,0,8.74L39,65.45a6.18,6.18,0,0,1-8.74,0L3.81,39a6.19,6.19,0,0,1,0-8.74L30.26,3.81A6.16,6.16,0,0,1,34.63,2m0-2a8.12,8.12,0,0,0-5.79,2.4L2.4,28.84a8.18,8.18,0,0,0,0,11.58L28.84,66.86a8.18,8.18,0,0,0,11.58,0L66.86,40.42a8.18,8.18,0,0,0,0-11.58L40.42,2.4A8.12,8.12,0,0,0,34.63,0Z"/><circle class="cls-2" cx="36.12" cy="23.27" r="3.02"/><rect class="cls-2" x="18.5" y="27.1" width="6.18" height="7.69"/><polygon class="cls-4" points="25.23 27.1 39.53 27.1 44.83 28.17 45.69 25.67 47.1 25.96 45.97 30.54 39.57 30.07 40.78 49.01 39.39 48.99 36.73 38.11 34.93 48.99 33.6 48.99 33.45 30.11 25.23 28.51 25.23 27.1"/></symbol><symbol id="localfirst-relay-v" data-name="localfirst-relay-v" viewBox="0 0 409 338.3"><use width="409" height="103.97" xlink:href="#localfirst-box"/><rect class="cls-3" x="5.65" y="131.17" width="397.71" height="202.49" rx="31.82"/><path class="cls-2" d="M371.53,135.81A27.21,27.21,0,0,1,398.71,163V301.84A27.2,27.2,0,0,1,371.53,329H37.47a27.2,27.2,0,0,1-27.18-27.17V163a27.21,27.21,0,0,1,27.18-27.18H371.53m0-9.29H37.47A36.47,36.47,0,0,0,1,163V301.84A36.46,36.46,0,0,0,37.47,338.3H371.53A36.46,36.46,0,0,0,408,301.84V163a36.47,36.47,0,0,0-36.47-36.47Z"/><path class="cls-3" d="M371.53,131.17A31.85,31.85,0,0,1,403.35,163V301.84a31.86,31.86,0,0,1-31.82,31.82H37.47A31.86,31.86,0,0,1,5.65,301.84V163a31.85,31.85,0,0,1,31.82-31.82H371.53m0-4.65H37.47A36.47,36.47,0,0,0,1,163V301.84A36.46,36.46,0,0,0,37.47,338.3H371.53A36.46,36.46,0,0,0,408,301.84V163a36.47,36.47,0,0,0-36.47-36.47Z"/><path class="cls-2" d="M211.13,221.47c0,4.68-1.13,8.41-3.38,11.22a16.82,16.82,0,0,1-9.33,5.69l11.8,23.6h-10l-11.44-22.86h-13V262h-8.58V204.23h25.33a23.91,23.91,0,0,1,7.13,1,17.14,17.14,0,0,1,5.9,3.13,14.69,14.69,0,0,1,4,5.37A18.44,18.44,0,0,1,211.13,221.47Zm-8.75.25q0-4.54-2.67-6.93a10.23,10.23,0,0,0-7.11-2.39H175.82V231H192.6a10.68,10.68,0,0,0,7.07-2.27C201.48,227.18,202.38,224.85,202.38,221.72Z"/><path class="cls-2" d="M256.34,239.45c0,.78,0,1.5-.09,2.19s-.11,1.25-.16,1.69H227.46a17.9,17.9,0,0,0,1.32,5.37,11.79,11.79,0,0,0,2.48,3.67,9.81,9.81,0,0,0,3.3,2.14,10.36,10.36,0,0,0,3.79.7,13.19,13.19,0,0,0,5-.91,18.23,18.23,0,0,0,4.42-2.55l5,5.44a21.35,21.35,0,0,1-6.43,4.21,22,22,0,0,1-8.5,1.48,17.94,17.94,0,0,1-7.22-1.48,16.93,16.93,0,0,1-6-4.37,21.14,21.14,0,0,1-4-7.1,28.61,28.61,0,0,1-1.49-9.57,30.9,30.9,0,0,1,1.4-9.73,20.56,20.56,0,0,1,3.88-7.06,16.24,16.24,0,0,1,6-4.33,19.6,19.6,0,0,1,7.72-1.48,17.54,17.54,0,0,1,8,1.73,16.38,16.38,0,0,1,5.69,4.7,20.36,20.36,0,0,1,3.38,6.93A30.36,30.36,0,0,1,256.34,239.45ZM247,232.11a10,10,0,0,0-1.85-3.46,8.77,8.77,0,0,0-3.1-2.35,10.48,10.48,0,0,0-4.49-.87,8.63,8.63,0,0,0-6.81,2.85,14.15,14.15,0,0,0-3.09,8h20.13A18.26,18.26,0,0,0,247,232.11Z"/><path class="cls-2" d="M267.31,262V206.29l8.58-4.46V262Z"/><path class="cls-2" d="M313.59,262v-4.29a19.33,19.33,0,0,1-5.28,3.71,14.85,14.85,0,0,1-6.6,1.48,19,19,0,0,1-5.32-.78,13.62,13.62,0,0,1-4.83-2.52,13,13,0,0,1-3.5-4.53,15.36,15.36,0,0,1-1.36-6.77A13.87,13.87,0,0,1,288,242a12.15,12.15,0,0,1,3.63-4.37,15.64,15.64,0,0,1,5.44-2.56,26.86,26.86,0,0,1,6.85-.82,24,24,0,0,1,9.65,1.65v-3.22a7,7,0,0,0-2.1-5.45,8.79,8.79,0,0,0-6.07-1.89,25.45,25.45,0,0,0-6.06.66,21.86,21.86,0,0,0-5.24,2.06l-3.3-6.44a26.94,26.94,0,0,1,6.68-2.88,30.52,30.52,0,0,1,8.17-1q7.26,0,11.76,3.59t4.49,10.93V262Zm0-18.48a15.49,15.49,0,0,0-4.08-1.41,28.92,28.92,0,0,0-5.82-.49,11,11,0,0,0-6.52,1.73,5.52,5.52,0,0,0-2.39,4.71,6.88,6.88,0,0,0,2.06,5.19q2.07,2,6.27,2a11.52,11.52,0,0,0,6.23-1.73,14.63,14.63,0,0,0,4.25-3.8Z"/><path class="cls-2" d="M348,277.24h-9l6.27-16.09-15.92-42.49h9.32l7.1,21.21c.33.93.68,2,1.07,3.21s.75,2.43,1.11,3.63l1,3.35a24.91,24.91,0,0,1,.62,2.43c.17-.66.4-1.5.7-2.52s.63-2.1,1-3.26.73-2.32,1.12-3.5.74-2.24,1.07-3.18l7.34-21.37h9Z"/><use width="69.26" height="69.26" transform="translate(36.5 180.47) scale(1.5)" xlink:href="#relay-logo"/></symbol></defs><g id="Layer_2" data-name="Layer 2"><g id="Layer_1-2" data-name="Layer 1"><use width="409" height="338.3" xlink:href="#localfirst-relay-v"/></g></g></svg>