<svg xmlns="http://www.w3.org/2000/svg" viewBox="0 0 210 100"><defs><style>.cls-1{fill:#f7921e;}.cls-2,.cls-3,.cls-4{fill:#231f20;}.cls-3{font-size:36px;font-family:InterstateCond;}.cls-4{fill-rule:evenodd;}</style></defs><g id="Layer_2" data-name="Layer 2"><g id="Layer_1-2" data-name="Layer 1"><rect class="cls-1" x="2" y="2" width="206" height="96" rx="15.33"/><path class="cls-2" d="M192.67,4A13.35,13.35,0,0,1,206,17.33V82.67A13.35,13.35,0,0,1,192.67,96H17.33A13.35,13.35,0,0,1,4,82.67V17.33A13.35,13.35,0,0,1,17.33,4H192.67m0-4H17.33A17.33,17.33,0,0,0,0,17.33V82.67A17.33,17.33,0,0,0,17.33,100H192.67A17.33,17.33,0,0,0,210,82.67V17.33A17.33,17.33,0,0,0,192.67,0Z"/><path class="cls-1" d="M192.67,2A15.35,15.35,0,0,1,208,17.33V82.67A15.35,15.35,0,0,1,192.67,98H17.33A15.35,15.35,0,0,1,2,82.67V17.33A15.35,15.35,0,0,1,17.33,2H192.67m0-2H17.33A17.33,17.33,0,0,0,0,17.33V82.67A17.33,17.33,0,0,0,17.33,100H192.67A17.33,17.33,0,0,0,210,82.67V17.33A17.33,17.33,0,0,0,192.67,0Z"/><text class="cls-3" transform="translate(100.06 61.6)">RELAY</text><path class="cls-4" d="M88.44,47.79l-28.7-28.7a1.69,1.69,0,0,0-2.39,0l-28.7,28.7a1.69,1.69,0,0,0,0,2.39l28.7,28.7a1.69,1.69,0,0,0,2.39,0l28.7-28.7a1.69,1.69,0,0,0,0-2.39m-1.64.65a.76.76,0,0,1,0,1.09L59.09,77.24a.78.78,0,0,1-1.08,0L30.29,49.53a.77.77,0,0,1,0-1.07L58,20.74a.76.76,0,0,1,1.08,0Z"/><circle class="cls-2" cx="60.16" cy="38.86" r="3.02"/><rect class="cls-2" x="42.53" y="42.7" width="6.18" height="7.69"/><polygon class="cls-4" points="49.26 42.7 63.56 42.7 68.86 43.76 69.72 41.27 71.13 41.55 70.01 46.14 63.6 45.66 64.82 64.61 63.43 64.59 60.76 53.7 58.96 64.58 57.63 64.58 57.49 45.71 49.26 44.11 49.26 42.7"/></g></g></svg>