<svg xmlns="http://www.w3.org/2000/svg" viewBox="0 0 284.98 100"><defs><style>.cls-1{fill:#f7921e;}.cls-2,.cls-3,.cls-4,.cls-5{fill:#231f20;}.cls-3{font-size:60px;font-family:Interstate-Regular;}.cls-4{font-size:36px;font-family:InterstateCond;}.cls-5{fill-rule:evenodd;}</style></defs><g id="Layer_2" data-name="Layer 2"><g id="Layer_1-2" data-name="Layer 1"><rect class="cls-1" x="2" y="2" width="96" height="96" rx="15.33"/><path class="cls-2" d="M82.67,4A13.35,13.35,0,0,1,96,17.33V82.67A13.35,13.35,0,0,1,82.67,96H17.33A13.35,13.35,0,0,1,4,82.67V17.33A13.35,13.35,0,0,1,17.33,4H82.67m0-4H17.33A17.33,17.33,0,0,0,0,17.33V82.67A17.33,17.33,0,0,0,17.33,100H82.67A17.33,17.33,0,0,0,100,82.67V17.33A17.33,17.33,0,0,0,82.67,0Z"/><path class="cls-1" d="M82.67,2A15.35,15.35,0,0,1,98,17.33V82.67A15.35,15.35,0,0,1,82.67,98H17.33A15.35,15.35,0,0,1,2,82.67V17.33A15.35,15.35,0,0,1,17.33,2H82.67m0-2H17.33A17.33,17.33,0,0,0,0,17.33V82.67A17.33,17.33,0,0,0,17.33,100H82.67A17.33,17.33,0,0,0,100,82.67V17.33A17.33,17.33,0,0,0,82.67,0Z"/><text class="cls-3" transform="translate(14.69 69.71)">LF</text><text class="cls-4" transform="translate(200.03 61.5)">RELAY</text><path class="cls-1" d="M158.63,80.3a4.15,4.15,0,0,1-3-1.22L129.22,52.63a4.18,4.18,0,0,1,0-5.91l26.45-26.45a4.18,4.18,0,0,1,5.92,0L188,46.72a4.18,4.18,0,0,1,0,5.91L161.59,79.08A4.15,4.15,0,0,1,158.63,80.3Z"/><path class="cls-2" d="M158.63,21a2.17,2.17,0,0,1,1.54.64l26.45,26.45a2.19,2.19,0,0,1,0,3.09L160.17,77.66a2.17,2.17,0,0,1-3.08,0L130.64,51.22a2.19,2.19,0,0,1,0-3.09l26.45-26.45a2.17,2.17,0,0,1,1.54-.64m0-4a6.2,6.2,0,0,0-4.37,1.81L127.81,45.3a6.2,6.2,0,0,0,0,8.75l26.45,26.44a6.18,6.18,0,0,0,8.74,0l26.45-26.44a6.2,6.2,0,0,0,0-8.75L163,18.85A6.2,6.2,0,0,0,158.63,17Z"/><path class="cls-1" d="M158.63,19a4.16,4.16,0,0,1,3,1.23L188,46.72a4.18,4.18,0,0,1,0,5.91L161.59,79.08a4.2,4.2,0,0,1-5.92,0L129.22,52.63a4.18,4.18,0,0,1,0-5.91l26.45-26.45a4.16,4.16,0,0,1,3-1.23m0-2a6.2,6.2,0,0,0-4.37,1.81L127.81,45.3a6.2,6.2,0,0,0,0,8.75l26.45,26.44a6.18,6.18,0,0,0,8.74,0l26.45-26.44a6.2,6.2,0,0,0,0-8.75L163,18.85A6.2,6.2,0,0,0,158.63,17Z"/><circle class="cls-2" cx="160.12" cy="38.31" r="3.02"/><rect class="cls-2" x="142.5" y="42.15" width="6.18" height="7.69"/><polygon class="cls-5" points="149.23 42.15 163.53 42.15 168.83 43.21 169.69 40.71 171.1 41 169.97 45.58 163.57 45.11 164.78 64.06 163.39 64.04 160.73 53.15 158.93 64.03 157.6 64.03 157.45 45.15 149.23 43.56 149.23 42.15"/></g></g></svg>