<svg xmlns="http://www.w3.org/2000/svg" viewBox="0 0 540 100.24"><defs><style>.cls-1{fill:#f7921e;}.cls-10,.cls-11,.cls-2,.cls-3{fill:#231f20;}.cls-3{font-size:60px;font-family:Interstate-Regular;}.cls-4{letter-spacing:-0.01em;}.cls-5{letter-spacing:0em;}.cls-6{letter-spacing:-0.02em;}.cls-7{letter-spacing:-0.02em;}.cls-8{letter-spacing:-0.01em;}.cls-9{letter-spacing:0em;}.cls-10{font-size:36px;font-family:InterstateCond;}.cls-11{fill-rule:evenodd;}</style></defs><g id="Layer_2" data-name="Layer 2"><g id="Layer_1-2" data-name="Layer 1"><rect class="cls-1" x="2" y="2" width="536" height="96.24" rx="15.33"/><path class="cls-2" d="M522.67,4A13.35,13.35,0,0,1,536,17.33V82.9a13.35,13.35,0,0,1-13.33,13.34H17.33A13.35,13.35,0,0,1,4,82.9V17.33A13.35,13.35,0,0,1,17.33,4H522.67m0-4H17.33A17.33,17.33,0,0,0,0,17.33V82.9a17.33,17.33,0,0,0,17.33,17.34H522.67A17.33,17.33,0,0,0,540,82.9V17.33A17.33,17.33,0,0,0,522.67,0Z"/><path class="cls-1" d="M522.67,2A15.35,15.35,0,0,1,538,17.33V82.9a15.35,15.35,0,0,1-15.33,15.34H17.33A15.35,15.35,0,0,1,2,82.9V17.33A15.35,15.35,0,0,1,17.33,2H522.67m0-2H17.33A17.33,17.33,0,0,0,0,17.33V82.9a17.33,17.33,0,0,0,17.33,17.34H522.67A17.33,17.33,0,0,0,540,82.9V17.33A17.33,17.33,0,0,0,522.67,0Z"/><text class="cls-3" transform="translate(37.35 69.37)"><tspan class="cls-4">L</tspan><tspan class="cls-5" x="34.8" y="0">o</tspan><tspan class="cls-6" x="69" y="0">c</tspan><tspan x="99.3" y="0">al Fi</tspan><tspan class="cls-7" x="215.22" y="0">r</tspan><tspan class="cls-8" x="239.1" y="0">s</tspan><tspan class="cls-9" x="268.44" y="0">t</tspan></text><text class="cls-10" transform="translate(430.06 61.49)">RELAY</text><path class="cls-11" d="M418.44,48.47l-28.7-28.7a1.69,1.69,0,0,0-2.39,0l-28.7,28.7a1.69,1.69,0,0,0,0,2.39l28.7,28.7a1.69,1.69,0,0,0,2.39,0l28.7-28.7a1.69,1.69,0,0,0,0-2.39m-1.64.65a.76.76,0,0,1,0,1.09l-27.71,27.7a.76.76,0,0,1-1.08,0l-27.72-27.7a.78.78,0,0,1,0-1.08L388,21.41a.78.78,0,0,1,1.08,0Z"/><circle class="cls-2" cx="390.16" cy="39.54" r="3.02"/><rect class="cls-2" x="373" y="43.29" width="6" height="8"/><polygon class="cls-11" points="379 43.29 392.67 43.29 397.74 44.31 398.56 41.91 399.91 42.19 398.83 46.58 392.71 46.13 393.87 64.29 393.43 64.29 390.76 54.38 388.96 65.29 387 65.29 386.86 46.17 379 44.64 379 43.29"/></g></g></svg>