<svg xmlns="http://www.w3.org/2000/svg" viewBox="0 0 540 100.24"><defs><style>.cls-1{fill:#008451;}.cls-10,.cls-11,.cls-2,.cls-3{fill:#fff;}.cls-3{font-size:60px;font-family:Interstate-Regular;}.cls-4{letter-spacing:-0.01em;}.cls-5{letter-spacing:0em;}.cls-6{letter-spacing:-0.02em;}.cls-7{letter-spacing:-0.02em;}.cls-8{letter-spacing:-0.01em;}.cls-9{letter-spacing:0em;}.cls-10{font-size:36px;font-family:InterstateCond;}.cls-11{fill-rule:evenodd;}</style></defs><g id="Layer_2" data-name="Layer 2"><g id="Layer_1-2" data-name="Layer 1"><rect class="cls-1" x="2" y="2" width="536" height="96.24" rx="15.33"/><path class="cls-2" d="M522.67,4A13.35,13.35,0,0,1,536,17.33V82.9a13.35,13.35,0,0,1-13.33,13.34H17.33A13.35,13.35,0,0,1,4,82.9V17.33A13.35,13.35,0,0,1,17.33,4H522.67m0-4H17.33A17.33,17.33,0,0,0,0,17.33V82.9a17.33,17.33,0,0,0,17.33,17.34H522.67A17.33,17.33,0,0,0,540,82.9V17.33A17.33,17.33,0,0,0,522.67,0Z"/><path class="cls-1" d="M522.67,2A15.35,15.35,0,0,1,538,17.33V82.9a15.35,15.35,0,0,1-15.33,15.34H17.33A15.35,15.35,0,0,1,2,82.9V17.33A15.35,15.35,0,0,1,17.33,2H522.67m0-2H17.33A17.33,17.33,0,0,0,0,17.33V82.9a17.33,17.33,0,0,0,17.33,17.34H522.67A17.33,17.33,0,0,0,540,82.9V17.33A17.33,17.33,0,0,0,522.67,0Z"/><text class="cls-3" transform="translate(37.35 69.71)"><tspan class="cls-4">L</tspan><tspan class="cls-5" x="34.8" y="0">o</tspan><tspan class="cls-6" x="69" y="0">c</tspan><tspan x="99.3" y="0">al Fi</tspan><tspan class="cls-7" x="215.22" y="0">r</tspan><tspan class="cls-8" x="239.1" y="0">s</tspan><tspan class="cls-9" x="268.44" y="0">t</tspan></text><text class="cls-10" transform="translate(430.06 61.83)">STATE</text><path class="cls-11" d="M398,38.34a15.14,15.14,0,0,0-7.26-2.72A14.6,14.6,0,0,0,380,39.2l-1.32-1.8A.83.83,0,0,0,378,37a.71.71,0,0,0-.74.69l-.39,8.92,8.43-3a.73.73,0,0,0,.44-.92c-.09-.26-.28-.36-.57-.47l-2.09-.76a10.67,10.67,0,0,1,7.31-2.11,10.94,10.94,0,0,1,5.42,2.09Z"/><path class="cls-11" d="M375.22,48.5a15.07,15.07,0,0,0,1.35,7.64,14.6,14.6,0,0,0,8.55,7.49l-.87,2.05a.83.83,0,0,0,0,.72.72.72,0,0,0,1,.29l7.89-4.2-6.82-5.76a.71.71,0,0,0-1,.08.81.81,0,0,0-.12.74l.4,2.18A10.67,10.67,0,0,1,380,54.5a10.93,10.93,0,0,1-.95-5.73Z"/><path class="cls-11" d="M395.47,63a15.09,15.09,0,0,0,5.93-5,14.57,14.57,0,0,0,2.18-11.16l2.22-.27a.85.85,0,0,0,.63-.34.73.73,0,0,0-.24-1l-7.59-4.71-1.55,8.79a.73.73,0,0,0,.57.84.86.86,0,0,0,.7-.27L400,48.48a10.66,10.66,0,0,1-1.76,7.41,11,11,0,0,1-4.47,3.69Z"/><path class="cls-2" d="M389.56,76.93A26.93,26.93,0,1,1,416.49,50,27,27,0,0,1,389.56,76.93Zm0-51.86A24.93,24.93,0,1,0,414.49,50,25,25,0,0,0,389.56,25.07Z"/></g></g></svg>