<svg xmlns="http://www.w3.org/2000/svg" xmlns:xlink="http://www.w3.org/1999/xlink" viewBox="0 0 790.63 103.97"><defs><style>.cls-1,.cls-4,.cls-5{fill:#fff;}.cls-2{fill:#231f20;}.cls-3{fill:#008451;}.cls-4{fill-rule:evenodd;}.cls-5{font-size:55px;font-family:Interstate-Regular;}.cls-6{letter-spacing:-0.02em;}.cls-7{letter-spacing:0em;}.cls-8{letter-spacing:-0.02em;}</style><symbol id="state-logo" data-name="state-logo" viewBox="0 0 57.92 57.92"><circle class="cls-3" cx="28.96" cy="28.96" r="27.96"/><path class="cls-3" d="M29,2A27,27,0,1,1,2,29,27,27,0,0,1,29,2m0-2a29,29,0,1,0,29,29A29,29,0,0,0,29,0Z"/><path class="cls-1" d="M29,4A25,25,0,1,1,4,29,25,25,0,0,1,29,4m0-2a27,27,0,1,0,27,27A27,27,0,0,0,29,2Z"/><path class="cls-4" d="M37.54,17.33a15,15,0,0,0-7.27-2.72,14.61,14.61,0,0,0-10.79,3.57l-1.33-1.79a.79.79,0,0,0-.6-.38.72.72,0,0,0-.75.68l-.38,8.93,8.43-3a.72.72,0,0,0,.44-.91c-.09-.26-.29-.36-.57-.47l-2.1-.76a10.65,10.65,0,0,1,7.32-2.11,10.91,10.91,0,0,1,5.41,2.09Z"/><path class="cls-4" d="M14.73,27.49a15.19,15.19,0,0,0,1.34,7.64,14.59,14.59,0,0,0,8.56,7.49l-.88,2.05a.81.81,0,0,0,0,.71.72.72,0,0,0,1,.3l7.89-4.2-6.83-5.76a.71.71,0,0,0-1,.08.8.8,0,0,0-.11.73l.4,2.19a10.67,10.67,0,0,1-5.53-5.24,11,11,0,0,1-.94-5.72Z"/><path class="cls-4" d="M35,42a15.11,15.11,0,0,0,5.94-5,14.61,14.61,0,0,0,2.18-11.16l2.21-.28a.79.79,0,0,0,.63-.33.72.72,0,0,0-.23-1l-7.59-4.71-1.56,8.79a.71.71,0,0,0,.58.83.78.78,0,0,0,.69-.27l1.69-1.44a10.58,10.58,0,0,1-1.75,7.4,10.93,10.93,0,0,1-4.48,3.7Z"/></symbol><symbol id="state-logo-box" data-name="state-logo-box" viewBox="0 0 359.44 100.02"><rect class="cls-3" x="3" y="3" width="353.44" height="94.02" rx="20.55"/><path class="cls-1" d="M335.89,6a17.57,17.57,0,0,1,17.55,17.55V76.47A17.57,17.57,0,0,1,335.89,94H23.55A17.57,17.57,0,0,1,6,76.47V23.55A17.57,17.57,0,0,1,23.55,6H335.89m0-6H23.55A23.55,23.55,0,0,0,0,23.55V76.47A23.55,23.55,0,0,0,23.55,100H335.89a23.55,23.55,0,0,0,23.55-23.55V23.55A23.55,23.55,0,0,0,335.89,0Z"/><path class="cls-3" d="M335.89,3a20.57,20.57,0,0,1,20.55,20.55V76.47A20.57,20.57,0,0,1,335.89,97H23.55A20.57,20.57,0,0,1,3,76.47V23.55A20.57,20.57,0,0,1,23.55,3H335.89m0-3H23.55A23.55,23.55,0,0,0,0,23.55V76.47A23.55,23.55,0,0,0,23.55,100H335.89a23.55,23.55,0,0,0,23.55-23.55V23.55A23.55,23.55,0,0,0,335.89,0Z"/><text class="cls-5" transform="translate(149.44 68.88)"><tspan class="cls-6">St</tspan><tspan class="cls-7" x="54.94" y="0">a</tspan><tspan class="cls-8" x="85.19" y="0">t</tspan><tspan x="106.26" y="0">e</tspan></text><use width="57.92" height="57.92" transform="translate(72.95 20.21)" xlink:href="#state-logo"/></symbol><symbol id="localfirst-box" data-name="localfirst-box" viewBox="0 0 409 103.97"><rect class="cls-1" x="4" y="4" width="401" height="95.97" rx="15.33"/><path class="cls-2" d="M389.67,6A13.35,13.35,0,0,1,403,19.33v65.3A13.35,13.35,0,0,1,389.67,98H19.33A13.35,13.35,0,0,1,6,84.63V19.33A13.35,13.35,0,0,1,19.33,6H389.67m0-4H19.33A17.33,17.33,0,0,0,2,19.33v65.3A17.33,17.33,0,0,0,19.33,102H389.67A17.33,17.33,0,0,0,407,84.63V19.33A17.33,17.33,0,0,0,389.67,2Z"/><path class="cls-1" d="M389.67,2A17.33,17.33,0,0,1,407,19.33v65.3A17.33,17.33,0,0,1,389.67,102H19.33A17.33,17.33,0,0,1,2,84.63V19.33A17.33,17.33,0,0,1,19.33,2H389.67m0-2H19.33A19.35,19.35,0,0,0,0,19.33v65.3A19.36,19.36,0,0,0,19.33,104H389.67A19.36,19.36,0,0,0,409,84.63V19.33A19.35,19.35,0,0,0,389.67,0Z"/><path class="cls-2" d="M84.8,72.63H64.57v-44h6.16v38H84.8Z"/><path class="cls-2" d="M115.84,50.54q0,10.17-3.2,16.13-3.52,6.58-10.18,6.58t-10-6.52q-3.15-5.9-3.15-16.06t3.15-16.13Q95.86,28,102.52,28t10.18,6.53Q115.84,40.38,115.84,50.54Zm-6.28.16A34.42,34.42,0,0,0,108,39.32q-1.89-5.2-5.59-5.21-6.86,0-6.85,16.46a34.32,34.32,0,0,0,1.57,11.37q1.81,5.22,5.53,5.22Q109.55,67.16,109.56,50.7Z"/><path class="cls-2" d="M146.13,62.19q-2.32,11.07-11.69,11.06-6.72,0-10-6.58-2.9-5.84-2.89-16t3.08-16.13Q128,28,134.63,28q9.62,0,11.44,10.74l-6.23,1.58a10.08,10.08,0,0,0-1.75-4.53,4.43,4.43,0,0,0-3.65-1.57q-6.6,0-6.6,16.37a35.2,35.2,0,0,0,1.51,11.29q1.83,5.2,5.53,5.2a4.31,4.31,0,0,0,3.46-1.55,15.48,15.48,0,0,0,2.07-5.11Z"/><path class="cls-2" d="M178.3,72.63h-6.72L169,61h-9.55l-2.51,11.63H150.4l10.81-44h6.34ZM167.74,55.16l-1.63-7.42q-.31-1.32-1.89-9.61-.61,3.33-1.88,9.61l-1.63,7.42Z"/><path class="cls-2" d="M204.5,72.63H184.27v-44h6.16v38H204.5Z"/><path class="cls-2" d="M245.34,34.61H230.51V46.68H240v5.9h-9.49v20h-6.15v-44h21Z"/><path class="cls-2" d="M257.72,72.63h-6.16v-44h6.16Z"/><path class="cls-2" d="M291.59,72.63h-6.85l-6.66-19.17H273V72.63h-6.16v-44h12.38a12.58,12.58,0,0,1,8.55,2.83q3.71,3.21,3.7,9.36,0,8.87-6.91,11.56ZM285.12,41q0-6.41-6.41-6.41H273V47.55h5.72Q285.12,47.55,285.12,41Z"/><path class="cls-2" d="M319.87,61.21a12.16,12.16,0,0,1-3.15,8.72q-3.14,3.33-8.86,3.32-7.41,0-11.62-7.12l4.84-3.87q3.07,4.91,7.16,4.9,5.28,0,5.28-5.59A7,7,0,0,0,312,57.11a26.33,26.33,0,0,0-5.9-4.81A26,26,0,0,1,299.88,47a12.79,12.79,0,0,1-2.57-8,10.42,10.42,0,0,1,11.12-11q6.6,0,10.68,6l-4.52,4a11.4,11.4,0,0,0-3-3,6.34,6.34,0,0,0-3.36-.82q-4.59,0-4.59,4.64A6.44,6.44,0,0,0,305,42.89,21.89,21.89,0,0,0,310.06,47a29.36,29.36,0,0,1,7,5.71A13.19,13.19,0,0,1,319.87,61.21Z"/><path class="cls-2" d="M346.76,34.67h-8.11v38H332.5v-38h-8.11v-6h22.37Z"/></symbol></defs><g id="Layer_2" data-name="Layer 2"><g id="Layer_1-2" data-name="Layer 1"><use width="359.44" height="100.02" transform="translate(431.19 2.17)" xlink:href="#state-logo-box"/><use width="409" height="103.97" xlink:href="#localfirst-box"/></g></g></svg>