<svg xmlns="http://www.w3.org/2000/svg" xmlns:xlink="http://www.w3.org/1999/xlink" viewBox="0 0 1280 640"><defs><style>.cls-1,.cls-4{fill:#fff;}.cls-2{fill:#231f20;}.cls-3{fill:#008451;}.cls-4{fill-rule:evenodd;}.cls-5{fill:#8db297;}.cls-6{opacity:0.16;fill:url(#linear-gradient);}</style><linearGradient id="linear-gradient" x1="160" y1="800" x2="1120" y2="-160" gradientUnits="userSpaceOnUse"><stop offset="0" stop-color="#fff"/><stop offset="1"/></linearGradient><symbol id="state-logo" data-name="state-logo" viewBox="0 0 57.92 57.92"><circle class="cls-3" cx="28.96" cy="28.96" r="27.96"/><path class="cls-3" d="M29,2A27,27,0,1,1,2,29,27,27,0,0,1,29,2m0-2a29,29,0,1,0,29,29A29,29,0,0,0,29,0Z"/><path class="cls-1" d="M29,4A25,25,0,1,1,4,29,25,25,0,0,1,29,4m0-2a27,27,0,1,0,27,27A27,27,0,0,0,29,2Z"/><path class="cls-4" d="M37.54,17.33a15,15,0,0,0-7.27-2.72,14.61,14.61,0,0,0-10.79,3.57l-1.33-1.79a.79.79,0,0,0-.6-.38.72.72,0,0,0-.75.68l-.38,8.93,8.43-3a.72.72,0,0,0,.44-.91c-.09-.26-.29-.36-.57-.47l-2.1-.76a10.65,10.65,0,0,1,7.32-2.11,10.91,10.91,0,0,1,5.41,2.09Z"/><path class="cls-4" d="M14.73,27.49a15.19,15.19,0,0,0,1.34,7.64,14.59,14.59,0,0,0,8.56,7.49l-.88,2.05a.81.81,0,0,0,0,.71.72.72,0,0,0,1,.3l7.89-4.2-6.83-5.76a.71.71,0,0,0-1,.08.8.8,0,0,0-.11.73l.4,2.19a10.67,10.67,0,0,1-5.53-5.24,11,11,0,0,1-.94-5.72Z"/><path class="cls-4" d="M35,42a15.11,15.11,0,0,0,5.94-5,14.61,14.61,0,0,0,2.18-11.16l2.21-.28a.79.79,0,0,0,.63-.33.72.72,0,0,0-.23-1l-7.59-4.71-1.56,8.79a.71.71,0,0,0,.58.83.78.78,0,0,0,.69-.27l1.69-1.44a10.58,10.58,0,0,1-1.75,7.4,10.93,10.93,0,0,1-4.48,3.7Z"/></symbol><symbol id="localfirst-box" data-name="localfirst-box" viewBox="0 0 409 103.97"><rect class="cls-1" x="4" y="4" width="401" height="95.97" rx="15.33"/><path class="cls-2" d="M389.67,6A13.35,13.35,0,0,1,403,19.33v65.3A13.35,13.35,0,0,1,389.67,98H19.33A13.35,13.35,0,0,1,6,84.63V19.33A13.35,13.35,0,0,1,19.33,6H389.67m0-4H19.33A17.33,17.33,0,0,0,2,19.33v65.3A17.33,17.33,0,0,0,19.33,102H389.67A17.33,17.33,0,0,0,407,84.63V19.33A17.33,17.33,0,0,0,389.67,2Z"/><path class="cls-1" d="M389.67,2A17.33,17.33,0,0,1,407,19.33v65.3A17.33,17.33,0,0,1,389.67,102H19.33A17.33,17.33,0,0,1,2,84.63V19.33A17.33,17.33,0,0,1,19.33,2H389.67m0-2H19.33A19.35,19.35,0,0,0,0,19.33v65.3A19.36,19.36,0,0,0,19.33,104H389.67A19.36,19.36,0,0,0,409,84.63V19.33A19.35,19.35,0,0,0,389.67,0Z"/><path class="cls-2" d="M84.8,72.63H64.57v-44h6.16v38H84.8Z"/><path class="cls-2" d="M115.84,50.54q0,10.17-3.2,16.13-3.52,6.58-10.18,6.58t-10-6.52q-3.15-5.9-3.15-16.06t3.15-16.13Q95.86,28,102.52,28t10.18,6.53Q115.84,40.38,115.84,50.54Zm-6.28.16A34.42,34.42,0,0,0,108,39.32q-1.89-5.2-5.59-5.21-6.86,0-6.85,16.46a34.32,34.32,0,0,0,1.57,11.37q1.81,5.22,5.53,5.22Q109.55,67.16,109.56,50.7Z"/><path class="cls-2" d="M146.13,62.19q-2.32,11.07-11.69,11.06-6.72,0-10-6.58-2.9-5.84-2.89-16t3.08-16.13Q128,28,134.63,28q9.62,0,11.44,10.74l-6.23,1.58a10.08,10.08,0,0,0-1.75-4.53,4.43,4.43,0,0,0-3.65-1.57q-6.6,0-6.6,16.37a35.2,35.2,0,0,0,1.51,11.29q1.83,5.2,5.53,5.2a4.31,4.31,0,0,0,3.46-1.55,15.48,15.48,0,0,0,2.07-5.11Z"/><path class="cls-2" d="M178.3,72.63h-6.72L169,61h-9.55l-2.51,11.63H150.4l10.81-44h6.34ZM167.74,55.16l-1.63-7.42q-.31-1.32-1.89-9.61-.61,3.33-1.88,9.61l-1.63,7.42Z"/><path class="cls-2" d="M204.5,72.63H184.27v-44h6.16v38H204.5Z"/><path class="cls-2" d="M245.34,34.61H230.51V46.68H240v5.9h-9.49v20h-6.15v-44h21Z"/><path class="cls-2" d="M257.72,72.63h-6.16v-44h6.16Z"/><path class="cls-2" d="M291.59,72.63h-6.85l-6.66-19.17H273V72.63h-6.16v-44h12.38a12.58,12.58,0,0,1,8.55,2.83q3.71,3.21,3.7,9.36,0,8.87-6.91,11.56ZM285.12,41q0-6.41-6.41-6.41H273V47.55h5.72Q285.12,47.55,285.12,41Z"/><path class="cls-2" d="M319.87,61.21a12.16,12.16,0,0,1-3.15,8.72q-3.14,3.33-8.86,3.32-7.41,0-11.62-7.12l4.84-3.87q3.07,4.91,7.16,4.9,5.28,0,5.28-5.59A7,7,0,0,0,312,57.11a26.33,26.33,0,0,0-5.9-4.81A26,26,0,0,1,299.88,47a12.79,12.79,0,0,1-2.57-8,10.42,10.42,0,0,1,11.12-11q6.6,0,10.68,6l-4.52,4a11.4,11.4,0,0,0-3-3,6.34,6.34,0,0,0-3.36-.82q-4.59,0-4.59,4.64A6.44,6.44,0,0,0,305,42.89,21.89,21.89,0,0,0,310.06,47a29.36,29.36,0,0,1,7,5.71A13.19,13.19,0,0,1,319.87,61.21Z"/><path class="cls-2" d="M346.76,34.67h-8.11v38H332.5v-38h-8.11v-6h22.37Z"/></symbol><symbol id="localfirst-state-v" data-name="localfirst-state-v" viewBox="0 0 409 335.32"><rect class="cls-3" x="5" y="129.28" width="399" height="203.04" rx="33.14"/><path class="cls-1" d="M370.86,132.28A30.17,30.17,0,0,1,401,162.42V299.18a30.17,30.17,0,0,1-30.14,30.14H38.14A30.17,30.17,0,0,1,8,299.18V162.42a30.17,30.17,0,0,1,30.14-30.14H370.86m0-6H38.14A36.14,36.14,0,0,0,2,162.42V299.18a36.14,36.14,0,0,0,36.14,36.14H370.86A36.14,36.14,0,0,0,407,299.18V162.42a36.14,36.14,0,0,0-36.14-36.14Z"/><path class="cls-3" d="M370.86,129.28A33.18,33.18,0,0,1,404,162.42V299.18a33.18,33.18,0,0,1-33.14,33.14H38.14A33.18,33.18,0,0,1,5,299.18V162.42a33.18,33.18,0,0,1,33.14-33.14H370.86m0-3H38.14A36.14,36.14,0,0,0,2,162.42V299.18a36.14,36.14,0,0,0,36.14,36.14H370.86A36.14,36.14,0,0,0,407,299.18V162.42a36.14,36.14,0,0,0-36.14-36.14Z"/><path class="cls-1" d="M199.84,241.07a18.61,18.61,0,0,1-1.25,6.92,14,14,0,0,1-3.78,5.4,17.6,17.6,0,0,1-6.48,3.5,31.2,31.2,0,0,1-9.34,1.25,25.77,25.77,0,0,1-11.32-2.46,26.52,26.52,0,0,1-8.73-6.64l6-5.88A20.81,20.81,0,0,0,171.7,248a18.65,18.65,0,0,0,7.93,1.82q11.67,0,11.68-8.22a6.41,6.41,0,0,0-.65-2.9,6.57,6.57,0,0,0-2.17-2.37,19.18,19.18,0,0,0-4-2.06c-1.61-.64-3.59-1.31-6-2a71.83,71.83,0,0,1-7.81-2.66,21,21,0,0,1-5.47-3.18,11.29,11.29,0,0,1-3.26-4.39A16.24,16.24,0,0,1,161,215.7a14.47,14.47,0,0,1,5.39-11.51,18,18,0,0,1,5.92-3.1,23.77,23.77,0,0,1,7.29-1.09,24.54,24.54,0,0,1,10.23,2,30,30,0,0,1,8.21,5.64l-6,6a17.77,17.77,0,0,0-5.8-4.07,18.76,18.76,0,0,0-7.32-1.32c-3.33,0-5.74.69-7.21,2.09a6.55,6.55,0,0,0-2.22,4.91,5.89,5.89,0,0,0,.57,2.62,6,6,0,0,0,1.93,2.17,17,17,0,0,0,3.79,2q2.41,1,6,2c2.79.86,5.3,1.74,7.53,2.66A21.71,21.71,0,0,1,195,230a13,13,0,0,1,3.58,4.59A15.09,15.09,0,0,1,199.84,241.07Z"/><path class="cls-1" d="M230.28,256.21a14.15,14.15,0,0,1-3.59,1.4,18.25,18.25,0,0,1-4.54.53,9,9,0,0,1-7-2.74q-2.53-2.73-2.54-8.45v-24.4h-6V215h6V202.9l8.14-4.35V215h10.46v7.57H220.78V245.5c0,2,.33,3.33,1,4a4.49,4.49,0,0,0,3.34,1,11.13,11.13,0,0,0,3.31-.52,14.25,14.25,0,0,0,2.81-1.17Z"/><path class="cls-1" d="M265.55,257.25v-4.18a19.18,19.18,0,0,1-5.16,3.62,14.45,14.45,0,0,1-6.44,1.45,18.39,18.39,0,0,1-5.19-.77,13.42,13.42,0,0,1-4.71-2.45,12.67,12.67,0,0,1-3.42-4.43,15,15,0,0,1-1.33-6.6,13.51,13.51,0,0,1,1.28-6.12,11.88,11.88,0,0,1,3.55-4.27,15.16,15.16,0,0,1,5.31-2.5,26.56,26.56,0,0,1,6.69-.8,23.32,23.32,0,0,1,9.42,1.61v-3.14a6.81,6.81,0,0,0-2.06-5.32,8.57,8.57,0,0,0-5.92-1.85,24.69,24.69,0,0,0-5.91.65,21.27,21.27,0,0,0-5.12,2l-3.22-6.28a25.85,25.85,0,0,1,6.52-2.82,30,30,0,0,1,8-1q7.08,0,11.47,3.51t4.39,10.66v29Zm0-18a15.43,15.43,0,0,0-4-1.37,27.51,27.51,0,0,0-5.68-.49,10.71,10.71,0,0,0-6.36,1.69,5.37,5.37,0,0,0-2.33,4.59,6.73,6.73,0,0,0,2,5.08q2,1.93,6.12,1.93A11.2,11.2,0,0,0,261.4,249a14.6,14.6,0,0,0,4.15-3.7Z"/><path class="cls-1" d="M305.81,256.21a14.15,14.15,0,0,1-3.59,1.4,18.33,18.33,0,0,1-4.55.53,9,9,0,0,1-7-2.74q-2.54-2.73-2.54-8.45v-24.4h-6V215h6V202.9l8.13-4.35V215h10.47v7.57H296.3V245.5c0,2,.34,3.33,1,4a4.47,4.47,0,0,0,3.34,1,11,11,0,0,0,3.3-.52,14.11,14.11,0,0,0,2.82-1.17Z"/><path class="cls-1" d="M350.74,235.27c0,.75,0,1.46-.08,2.13s-.11,1.23-.16,1.65H322.56a17.34,17.34,0,0,0,1.28,5.24,11.39,11.39,0,0,0,2.42,3.58,9.63,9.63,0,0,0,3.22,2.1,10.33,10.33,0,0,0,3.7.68,12.85,12.85,0,0,0,4.88-.89,18.14,18.14,0,0,0,4.3-2.49l4.92,5.31a21,21,0,0,1-6.28,4.11,21.4,21.4,0,0,1-8.3,1.45,17.4,17.4,0,0,1-7-1.45,16.49,16.49,0,0,1-5.84-4.27,20.73,20.73,0,0,1-3.95-6.92,28.13,28.13,0,0,1-1.45-9.34,30.17,30.17,0,0,1,1.37-9.51,20,20,0,0,1,3.79-6.88,15.85,15.85,0,0,1,5.83-4.23,19.29,19.29,0,0,1,7.53-1.45,17.24,17.24,0,0,1,7.85,1.69,16,16,0,0,1,5.56,4.59,19.79,19.79,0,0,1,3.3,6.77A29.67,29.67,0,0,1,350.74,235.27Zm-9.14-7.17a9.91,9.91,0,0,0-1.81-3.38,8.65,8.65,0,0,0-3-2.29,10.23,10.23,0,0,0-4.39-.85,8.41,8.41,0,0,0-6.64,2.78,13.82,13.82,0,0,0-3,7.85h19.64A18,18,0,0,0,341.6,228.1Z"/><use width="57.92" height="57.92" transform="translate(55.73 191.94) scale(1.34)" xlink:href="#state-logo"/><use width="409" height="103.97" xlink:href="#localfirst-box"/></symbol></defs><g id="Layer_2" data-name="Layer 2"><g id="Layer_1-2" data-name="Layer 1"><rect class="cls-5" width="1280" height="640"/><rect class="cls-6" width="1280" height="640"/><use width="409" height="335.32" transform="translate(333.25 59.51) scale(1.5)" xlink:href="#localfirst-state-v"/></g></g></svg>