<svg xmlns="http://www.w3.org/2000/svg" xmlns:xlink="http://www.w3.org/1999/xlink" viewBox="0 0 790.63 103.97"><defs><style>.cls-1,.cls-5,.cls-6{fill:#fff;}.cls-2,.cls-3{fill:#231f20;}.cls-3{font-size:62.84px;font-family:InterstateCond;}.cls-4{fill:#008451;}.cls-5{fill-rule:evenodd;}.cls-6{font-size:55px;font-family:Interstate-Regular;}.cls-7{letter-spacing:-0.02em;}.cls-8{letter-spacing:0em;}.cls-9{letter-spacing:-0.02em;}</style><symbol id="state-logo" data-name="state-logo" viewBox="0 0 57.92 57.92"><circle class="cls-4" cx="28.96" cy="28.96" r="27.96"/><path class="cls-4" d="M29,2A27,27,0,1,1,2,29,27,27,0,0,1,29,2m0-2a29,29,0,1,0,29,29A29,29,0,0,0,29,0Z"/><path class="cls-1" d="M29,4A25,25,0,1,1,4,29,25,25,0,0,1,29,4m0-2a27,27,0,1,0,27,27A27,27,0,0,0,29,2Z"/><path class="cls-5" d="M37.54,17.33a15,15,0,0,0-7.27-2.72,14.61,14.61,0,0,0-10.79,3.57l-1.33-1.79a.79.79,0,0,0-.6-.38.72.72,0,0,0-.75.68l-.38,8.93,8.43-3a.72.72,0,0,0,.44-.91c-.09-.26-.29-.36-.57-.47l-2.1-.76a10.65,10.65,0,0,1,7.32-2.11,10.91,10.91,0,0,1,5.41,2.09Z"/><path class="cls-5" d="M14.73,27.49a15.19,15.19,0,0,0,1.34,7.64,14.59,14.59,0,0,0,8.56,7.49l-.88,2.05a.81.81,0,0,0,0,.71.72.72,0,0,0,1,.3l7.89-4.2-6.83-5.76a.71.71,0,0,0-1,.08.8.8,0,0,0-.11.73l.4,2.19a10.67,10.67,0,0,1-5.53-5.24,11,11,0,0,1-.94-5.72Z"/><path class="cls-5" d="M35,42a15.11,15.11,0,0,0,5.94-5,14.61,14.61,0,0,0,2.18-11.16l2.21-.28a.79.79,0,0,0,.63-.33.72.72,0,0,0-.23-1l-7.59-4.71-1.56,8.79a.71.71,0,0,0,.58.83.78.78,0,0,0,.69-.27l1.69-1.44a10.58,10.58,0,0,1-1.75,7.4,10.93,10.93,0,0,1-4.48,3.7Z"/></symbol><symbol id="state-logo-box" data-name="state-logo-box" viewBox="0 0 359.44 100.02"><rect class="cls-4" x="3" y="3" width="353.44" height="94.02" rx="20.55"/><path class="cls-1" d="M335.89,6a17.57,17.57,0,0,1,17.55,17.55V76.47A17.57,17.57,0,0,1,335.89,94H23.55A17.57,17.57,0,0,1,6,76.47V23.55A17.57,17.57,0,0,1,23.55,6H335.89m0-6H23.55A23.55,23.55,0,0,0,0,23.55V76.47A23.55,23.55,0,0,0,23.55,100H335.89a23.55,23.55,0,0,0,23.55-23.55V23.55A23.55,23.55,0,0,0,335.89,0Z"/><path class="cls-4" d="M335.89,3a20.57,20.57,0,0,1,20.55,20.55V76.47A20.57,20.57,0,0,1,335.89,97H23.55A20.57,20.57,0,0,1,3,76.47V23.55A20.57,20.57,0,0,1,23.55,3H335.89m0-3H23.55A23.55,23.55,0,0,0,0,23.55V76.47A23.55,23.55,0,0,0,23.55,100H335.89a23.55,23.55,0,0,0,23.55-23.55V23.55A23.55,23.55,0,0,0,335.89,0Z"/><text class="cls-6" transform="translate(149.44 68.88)"><tspan class="cls-7">St</tspan><tspan class="cls-8" x="54.94" y="0">a</tspan><tspan class="cls-9" x="85.19" y="0">t</tspan><tspan x="106.26" y="0">e</tspan></text><use width="57.92" height="57.92" transform="translate(72.95 20.21)" xlink:href="#state-logo"/></symbol><symbol id="localfirst-box" data-name="localfirst-box" viewBox="0 0 409 103.97"><rect class="cls-1" x="4" y="4" width="401" height="95.97" rx="15.33"/><path class="cls-2" d="M389.67,6A13.35,13.35,0,0,1,403,19.33v65.3A13.35,13.35,0,0,1,389.67,98H19.33A13.35,13.35,0,0,1,6,84.63V19.33A13.35,13.35,0,0,1,19.33,6H389.67m0-4H19.33A17.33,17.33,0,0,0,2,19.33v65.3A17.33,17.33,0,0,0,19.33,102H389.67A17.33,17.33,0,0,0,407,84.63V19.33A17.33,17.33,0,0,0,389.67,2Z"/><path class="cls-1" d="M389.67,2A17.33,17.33,0,0,1,407,19.33v65.3A17.33,17.33,0,0,1,389.67,102H19.33A17.33,17.33,0,0,1,2,84.63V19.33A17.33,17.33,0,0,1,19.33,2H389.67m0-2H19.33A19.35,19.35,0,0,0,0,19.33v65.3A19.36,19.36,0,0,0,19.33,104H389.67A19.36,19.36,0,0,0,409,84.63V19.33A19.35,19.35,0,0,0,389.67,0Z"/><text class="cls-3" transform="translate(60.17 72.63)">LOCAL FIRST</text></symbol></defs><g id="Layer_2" data-name="Layer 2"><g id="Layer_1-2" data-name="Layer 1"><use width="359.44" height="100.02" transform="translate(431.19 2.17)" xlink:href="#state-logo-box"/><use width="409" height="103.97" xlink:href="#localfirst-box"/></g></g></svg>