<svg xmlns="http://www.w3.org/2000/svg" xmlns:xlink="http://www.w3.org/1999/xlink" viewBox="0 0 231.67 231.67"><defs><style>.cls-1{fill:#008451;}.cls-2,.cls-3{fill:#fff;}.cls-3{fill-rule:evenodd;}</style><symbol id="state-logo" data-name="state-logo" viewBox="0 0 57.92 57.92"><circle class="cls-1" cx="28.96" cy="28.96" r="27.96"/><path class="cls-1" d="M29,2A27,27,0,1,1,2,29,27,27,0,0,1,29,2m0-2a29,29,0,1,0,29,29A29,29,0,0,0,29,0Z"/><path class="cls-2" d="M29,4A25,25,0,1,1,4,29,25,25,0,0,1,29,4m0-2a27,27,0,1,0,27,27A27,27,0,0,0,29,2Z"/><path class="cls-3" d="M37.54,17.33a15,15,0,0,0-7.27-2.72,14.61,14.61,0,0,0-10.79,3.57l-1.33-1.79a.79.79,0,0,0-.6-.38.72.72,0,0,0-.75.68l-.38,8.93,8.43-3a.72.72,0,0,0,.44-.91c-.09-.26-.29-.36-.57-.47l-2.1-.76a10.65,10.65,0,0,1,7.32-2.11,10.91,10.91,0,0,1,5.41,2.09Z"/><path class="cls-3" d="M14.73,27.49a15.19,15.19,0,0,0,1.34,7.64,14.59,14.59,0,0,0,8.56,7.49l-.88,2.05a.81.81,0,0,0,0,.71.72.72,0,0,0,1,.3l7.89-4.2-6.83-5.76a.71.71,0,0,0-1,.08.8.8,0,0,0-.11.73l.4,2.19a10.67,10.67,0,0,1-5.53-5.24,11,11,0,0,1-.94-5.72Z"/><path class="cls-3" d="M35,42a15.11,15.11,0,0,0,5.94-5,14.61,14.61,0,0,0,2.18-11.16l2.21-.28a.79.79,0,0,0,.63-.33.72.72,0,0,0-.23-1l-7.59-4.71-1.56,8.79a.71.71,0,0,0,.58.83.78.78,0,0,0,.69-.27l1.69-1.44a10.58,10.58,0,0,1-1.75,7.4,10.93,10.93,0,0,1-4.48,3.7Z"/></symbol></defs><g id="Layer_2" data-name="Layer 2"><g id="Layer_1-2" data-name="Layer 1"><use width="57.92" height="57.92" transform="translate(0 0) scale(4)" xlink:href="#state-logo"/></g></g></svg>