<svg xmlns="http://www.w3.org/2000/svg" viewBox="0 0 210 100"><defs><style>.cls-1{fill:#008451;}.cls-2,.cls-3,.cls-4{fill:#fff;}.cls-3{font-size:36px;font-family:InterstateCond;}.cls-4{fill-rule:evenodd;}.cls-5{fill:none;stroke:#fff;stroke-miterlimit:10;stroke-width:2px;}</style></defs><g id="Layer_2" data-name="Layer 2"><g id="Layer_1-2" data-name="Layer 1"><rect class="cls-1" x="2" y="2" width="206" height="96" rx="15.33"/><path class="cls-2" d="M192.67,4A13.35,13.35,0,0,1,206,17.33V82.67A13.35,13.35,0,0,1,192.67,96H17.33A13.35,13.35,0,0,1,4,82.67V17.33A13.35,13.35,0,0,1,17.33,4H192.67m0-4H17.33A17.33,17.33,0,0,0,0,17.33V82.67A17.33,17.33,0,0,0,17.33,100H192.67A17.33,17.33,0,0,0,210,82.67V17.33A17.33,17.33,0,0,0,192.67,0Z"/><path class="cls-1" d="M192.67,2A15.35,15.35,0,0,1,208,17.33V82.67A15.35,15.35,0,0,1,192.67,98H17.33A15.35,15.35,0,0,1,2,82.67V17.33A15.35,15.35,0,0,1,17.33,2H192.67m0-2H17.33A17.33,17.33,0,0,0,0,17.33V82.67A17.33,17.33,0,0,0,17.33,100H192.67A17.33,17.33,0,0,0,210,82.67V17.33A17.33,17.33,0,0,0,192.67,0Z"/><text class="cls-3" transform="translate(100.06 62.39)">STATE</text><path class="cls-4" d="M68,37.84a15,15,0,0,0-7.26-2.72A14.59,14.59,0,0,0,50,38.69l-1.32-1.8a.83.83,0,0,0-.61-.38.72.72,0,0,0-.74.69l-.39,8.93,8.43-3a.72.72,0,0,0,.44-.91c-.09-.26-.28-.37-.57-.48L53.12,41a10.61,10.61,0,0,1,7.31-2.1A11,11,0,0,1,65.85,41Z"/><path class="cls-4" d="M45.22,48a15,15,0,0,0,1.35,7.64,14.57,14.57,0,0,0,8.55,7.49l-.87,2.06a.81.81,0,0,0,0,.71.71.71,0,0,0,1,.29L63.08,62l-6.82-5.77a.72.72,0,0,0-1,.09.8.8,0,0,0-.12.73l.4,2.19A10.65,10.65,0,0,1,50,54a10.9,10.9,0,0,1-.95-5.72Z"/><path class="cls-4" d="M65.47,62.53a15.15,15.15,0,0,0,5.93-5,14.57,14.57,0,0,0,2.18-11.16l2.22-.28a.82.82,0,0,0,.63-.34.72.72,0,0,0-.24-1L68.6,40.06l-1.55,8.8a.72.72,0,0,0,.57.83.8.8,0,0,0,.7-.27L70,48a10.65,10.65,0,0,1-1.76,7.41,11,11,0,0,1-4.47,3.7Z"/><circle class="cls-5" cx="59.56" cy="49.49" r="25.93"/></g></g></svg>