<svg xmlns="http://www.w3.org/2000/svg" viewBox="0 0 152.74 64"><defs><style>.cls-1{font-size:36px;font-family:InterstateCond;}.cls-1,.cls-2{fill:#008451;}.cls-3,.cls-4{fill:#fff;}.cls-4{fill-rule:evenodd;}</style></defs><g id="Layer_2" data-name="Layer 2"><g id="Layer_1-2" data-name="Layer 1"><text class="cls-1" transform="translate(72.61 43.83)">STATE</text><circle class="cls-2" cx="32" cy="32" r="30"/><path class="cls-3" d="M32,4A28,28,0,1,1,4,32,28,28,0,0,1,32,4m0-4A32,32,0,1,0,64,32,32,32,0,0,0,32,0Z"/><path class="cls-2" d="M32,2A30,30,0,1,1,2,32,30,30,0,0,1,32,2m0-2A32,32,0,1,0,64,32,32,32,0,0,0,32,0Z"/><path class="cls-4" d="M40.58,20.37a15,15,0,0,0-7.27-2.72,14.61,14.61,0,0,0-10.79,3.57l-1.33-1.79a.79.79,0,0,0-.6-.38.72.72,0,0,0-.75.68l-.38,8.93,8.43-3a.72.72,0,0,0,.44-.91c-.09-.26-.29-.36-.57-.47l-2.09-.76A10.66,10.66,0,0,1,33,21.45a10.91,10.91,0,0,1,5.41,2.09Z"/><path class="cls-4" d="M17.77,30.53a15.19,15.19,0,0,0,1.34,7.64,14.62,14.62,0,0,0,8.56,7.49l-.88,2.05a.84.84,0,0,0,0,.71.72.72,0,0,0,1,.3l7.89-4.2L28.8,38.76a.71.71,0,0,0-1,.08.83.83,0,0,0-.11.73l.4,2.19a10.65,10.65,0,0,1-5.52-5.24,10.9,10.9,0,0,1-.95-5.72Z"/><path class="cls-4" d="M38,45.07a15.17,15.17,0,0,0,5.93-5,14.61,14.61,0,0,0,2.18-11.16l2.22-.28A.79.79,0,0,0,49,28.3a.72.72,0,0,0-.23-1L41.15,22.6l-1.56,8.79a.71.71,0,0,0,.58.83.8.8,0,0,0,.69-.26l1.69-1.45a10.62,10.62,0,0,1-1.75,7.41,11,11,0,0,1-4.48,3.69Z"/></g></g></svg>