<svg xmlns="http://www.w3.org/2000/svg" viewBox="0 0 280.16 100"><defs><style>.cls-1,.cls-4{fill:#008451;}.cls-2,.cls-3,.cls-5{fill:#fff;}.cls-3{font-size:60px;font-family:Interstate-Regular;}.cls-4{font-size:36px;font-family:InterstateCond;}.cls-5{fill-rule:evenodd;}</style></defs><g id="Layer_2" data-name="Layer 2"><g id="Layer_1-2" data-name="Layer 1"><rect class="cls-1" x="2" y="2" width="96" height="96" rx="15.33"/><path class="cls-2" d="M82.67,4A13.35,13.35,0,0,1,96,17.33V82.67A13.35,13.35,0,0,1,82.67,96H17.33A13.35,13.35,0,0,1,4,82.67V17.33A13.35,13.35,0,0,1,17.33,4H82.67m0-4H17.33A17.33,17.33,0,0,0,0,17.33V82.67A17.33,17.33,0,0,0,17.33,100H82.67A17.33,17.33,0,0,0,100,82.67V17.33A17.33,17.33,0,0,0,82.67,0Z"/><path class="cls-1" d="M82.67,2A15.35,15.35,0,0,1,98,17.33V82.67A15.35,15.35,0,0,1,82.67,98H17.33A15.35,15.35,0,0,1,2,82.67V17.33A15.35,15.35,0,0,1,17.33,2H82.67m0-2H17.33A17.33,17.33,0,0,0,0,17.33V82.67A17.33,17.33,0,0,0,17.33,100H82.67A17.33,17.33,0,0,0,100,82.67V17.33A17.33,17.33,0,0,0,82.67,0Z"/><text class="cls-3" transform="translate(14.69 69.58)">LF</text><text class="cls-4" transform="translate(200.03 61.7)">STATE</text><circle class="cls-1" cx="159.42" cy="49.87" r="30"/><path class="cls-2" d="M159.42,21.87a28,28,0,1,1-28,28,28,28,0,0,1,28-28m0-4a32,32,0,1,0,32,32,32,32,0,0,0-32-32Z"/><path class="cls-1" d="M159.42,19.87a30,30,0,1,1-30,30,30,30,0,0,1,30-30m0-2a32,32,0,1,0,32,32,32,32,0,0,0-32-32Z"/><path class="cls-5" d="M168,38.24a15,15,0,0,0-7.27-2.72,14.61,14.61,0,0,0-10.79,3.57l-1.33-1.79a.79.79,0,0,0-.6-.38.72.72,0,0,0-.75.68l-.38,8.93,8.43-3a.72.72,0,0,0,.44-.91c-.09-.26-.29-.36-.57-.47l-2.09-.76a10.61,10.61,0,0,1,7.31-2.11,10.87,10.87,0,0,1,5.41,2.09Z"/><path class="cls-5" d="M145.19,48.4A15.19,15.19,0,0,0,146.53,56a14.62,14.62,0,0,0,8.56,7.49l-.88,2a.84.84,0,0,0,0,.71.72.72,0,0,0,1,.3l7.89-4.2-6.83-5.76a.71.71,0,0,0-1,.08.83.83,0,0,0-.11.73l.4,2.19A10.65,10.65,0,0,1,150,54.39a10.9,10.9,0,0,1-.95-5.72Z"/><path class="cls-5" d="M165.44,62.93a15.15,15.15,0,0,0,5.93-5,14.61,14.61,0,0,0,2.18-11.16l2.22-.28a.79.79,0,0,0,.62-.33.72.72,0,0,0-.23-1l-7.59-4.71L167,49.26a.71.71,0,0,0,.58.83.78.78,0,0,0,.69-.27L170,48.38a10.62,10.62,0,0,1-1.75,7.41,11,11,0,0,1-4.48,3.69Z"/></g></g></svg>