<svg xmlns="http://www.w3.org/2000/svg" viewBox="0 0 576.16 99.97"><defs><style>.cls-1,.cls-11{fill:#008451;}.cls-12,.cls-2,.cls-4{fill:#fff;}.cls-3{fill:none;stroke:#008451;stroke-miterlimit:10;stroke-width:0px;}.cls-4{font-size:60px;font-family:Interstate-Regular;}.cls-5{letter-spacing:-0.01em;}.cls-6{letter-spacing:0em;}.cls-7{letter-spacing:-0.02em;}.cls-8{letter-spacing:-0.02em;}.cls-9{letter-spacing:-0.01em;}.cls-10{letter-spacing:0em;}.cls-11{font-size:36px;font-family:InterstateCond;}.cls-12{fill-rule:evenodd;}</style></defs><g id="Layer_2" data-name="Layer 2"><g id="Layer_1-2" data-name="Layer 1"><rect class="cls-1" x="2" y="2" width="401" height="95.97" rx="15.33"/><path class="cls-2" d="M387.67,4A13.35,13.35,0,0,1,401,17.33v65.3A13.35,13.35,0,0,1,387.67,96H17.33A13.35,13.35,0,0,1,4,82.63V17.33A13.35,13.35,0,0,1,17.33,4H387.67m0-4H17.33A17.33,17.33,0,0,0,0,17.33v65.3A17.33,17.33,0,0,0,17.33,100H387.67A17.33,17.33,0,0,0,405,82.63V17.33A17.33,17.33,0,0,0,387.67,0Z"/><path class="cls-1" d="M387.67,2A15.35,15.35,0,0,1,403,17.33v65.3A15.35,15.35,0,0,1,387.67,98H17.33A15.35,15.35,0,0,1,2,82.63V17.33A15.35,15.35,0,0,1,17.33,2H387.67m0-2H17.33A17.33,17.33,0,0,0,0,17.33v65.3A17.33,17.33,0,0,0,17.33,100H387.67A17.33,17.33,0,0,0,405,82.63V17.33A17.33,17.33,0,0,0,387.67,0Z"/><rect class="cls-3" width="405" height="99.97" rx="17.33"/><text class="cls-4" transform="translate(52.35 69.71)"><tspan class="cls-5">L</tspan><tspan class="cls-6" x="34.8" y="0">o</tspan><tspan class="cls-7" x="69" y="0">c</tspan><tspan x="99.3" y="0">al Fi</tspan><tspan class="cls-8" x="215.22" y="0">r</tspan><tspan class="cls-9" x="239.1" y="0">s</tspan><tspan class="cls-10" x="268.44" y="0">t</tspan></text><text class="cls-11" transform="translate(496.03 61.83)">STATE</text><circle class="cls-1" cx="455.42" cy="50" r="30"/><path class="cls-2" d="M455.42,22a28,28,0,1,1-28,28,28,28,0,0,1,28-28m0-4a32,32,0,1,0,32,32,32,32,0,0,0-32-32Z"/><path class="cls-1" d="M455.42,20a30,30,0,1,1-30,30,30,30,0,0,1,30-30m0-2a32,32,0,1,0,32,32,32,32,0,0,0-32-32Z"/><path class="cls-12" d="M464,38.37a15,15,0,0,0-7.27-2.72,14.61,14.61,0,0,0-10.79,3.57l-1.33-1.79a.79.79,0,0,0-.6-.38.72.72,0,0,0-.75.68l-.38,8.93,8.43-3a.72.72,0,0,0,.44-.91c-.09-.26-.29-.36-.57-.47l-2.09-.76a10.66,10.66,0,0,1,7.31-2.11,10.94,10.94,0,0,1,5.42,2.09Z"/><path class="cls-12" d="M441.19,48.53a15.19,15.19,0,0,0,1.34,7.64,14.62,14.62,0,0,0,8.56,7.49l-.88,2a.84.84,0,0,0,0,.71.72.72,0,0,0,1,.3l7.89-4.2-6.83-5.76a.71.71,0,0,0-1,.08.83.83,0,0,0-.11.73l.4,2.19A10.65,10.65,0,0,1,446,54.52a10.9,10.9,0,0,1-1-5.72Z"/><path class="cls-12" d="M461.44,63.07a15.17,15.17,0,0,0,5.93-5,14.61,14.61,0,0,0,2.18-11.16l2.22-.27a.81.81,0,0,0,.62-.34.72.72,0,0,0-.23-1l-7.59-4.71L463,49.39a.71.71,0,0,0,.58.83.8.8,0,0,0,.69-.26L466,48.51a10.62,10.62,0,0,1-1.75,7.41,11,11,0,0,1-4.47,3.69Z"/></g></g></svg>